<svg xmlns="http://www.w3.org/2000/svg" xml:space="preserve" version="1.1" shape-rendering="geometricPrecision" text-rendering="geometricPrecision" image-rendering="optimizeQuality" fill-rule="evenodd" clip-rule="evenodd"
viewBox="0 0 3508 2007.95"
 xmlns:xlink="http://www.w3.org/1999/xlink">
 <defs>
   <radialGradient id="id0" gradientUnits="userSpaceOnUse" gradientTransform="matrix(1.89656E-16 -3.09732 -2.27608 -1.15015E-15 7869 8369)" cx="1847.76" cy="2645.52" r="768.39" fx="1847.76" fy="2645.52">
    <stop offset="0" stop-opacity="1" stop-color="#364058"/>
    <stop offset="1" stop-opacity="1" stop-color="#30303B"/>
   </radialGradient>
   <mask id="id1">
     <linearGradient id="id2" gradientUnits="userSpaceOnUse" x1="1122.74" y1="2454.33" x2="625.31" y2="2505.48">
      <stop offset="0" stop-opacity="0" stop-color="white"/>
      <stop offset="0.560784" stop-opacity="-127.502" stop-color="white"/>
      <stop offset="1" stop-opacity="1" stop-color="white"/>
     </linearGradient>
    <rect fill="url(#id2)" x="768.29" y="1741.84" width="165.92" height="263.65"/>
   </mask>
 </defs>
 <g class="Layer0020">
  <path class="star" fill="#EBCC42" fill-rule="nonzero" d="M866.27 352.37c-91.62,10.47 -99.99,18.96 -110.32,111.78 -10.35,-92.82 -18.71,-101.31 -110.34,-111.78 91.63,-10.46 99.99,-18.95 110.34,-111.77 10.33,92.82 18.7,101.31 110.32,111.77z"/>
  <g class="asteroid">
   <path fill="#D0CECD" fill-rule="nonzero" d="M514.12 960.21c0.09,-21.93 -10.78,-42.35 -27.46,-56.34 -17.17,-14.45 -45.39,-34.12 -74.38,-37.98 -47.01,-6.27 -42.15,46.36 -86.59,53.88 -44.53,7.53 -75.23,58.95 -41.95,96.52 33.28,37.57 70.37,-13.8 128.54,11.25 46.82,20.2 101.65,-14.91 101.84,-67.33z"/>
   <path fill="#9EA0A0" fill-rule="nonzero" d="M466.72 932.83c0,12.4 -10.1,22.56 -22.31,22.56 -5.15,0 -9.91,-1.81 -13.73,-4.81 -5.15,-4.14 -8.58,-10.53 -8.58,-17.75 0,-12.48 10.01,-22.56 22.31,-22.56 7.06,0 13.26,3.31 17.36,8.49 3.05,3.85 4.95,8.73 4.95,14.07z"/>
   <path fill="#BDBDBD" fill-rule="nonzero" d="M466.72 932.83c0,12.4 -10.1,22.56 -22.31,22.56 -5.15,0 -9.91,-1.81 -13.73,-4.81 -2.96,-3.84 -4.77,-8.66 -4.77,-13.91 0,-12.49 10.02,-22.56 22.22,-22.56 5.24,0 9.92,1.73 13.64,4.65 3.05,3.85 4.95,8.73 4.95,14.07z"/>
   <path fill="#9EA0A0" fill-rule="nonzero" d="M396.16 951.73c0,8.19 -6.67,14.89 -14.78,14.89 -3.33,0 -6.48,-1.18 -8.96,-3.17 -3.53,-2.74 -5.72,-6.95 -5.72,-11.72 0,-8.25 6.58,-14.91 14.68,-14.91 4.77,0 8.77,2.19 11.54,5.61 2,2.54 3.24,5.77 3.24,9.3z"/>
   <path fill="#BDBDBD" fill-rule="nonzero" d="M396.16 951.73c0,8.19 -6.67,14.89 -14.78,14.89 -3.33,0 -6.48,-1.18 -8.96,-3.17 -2.1,-2.53 -3.15,-5.71 -3.15,-9.19 0,-8.25 6.49,-14.9 14.59,-14.9 3.43,0 6.58,1.14 9.06,3.07 2,2.54 3.24,5.77 3.24,9.3z"/>
   <path fill="#9EA0A0" fill-rule="nonzero" d="M439.07 982.74c0,8.2 -6.67,14.91 -14.78,14.91 -3.33,0 -6.48,-1.2 -8.96,-3.18 -3.53,-2.74 -5.72,-6.96 -5.72,-11.73 0,-8.24 6.58,-14.9 14.68,-14.9 4.77,0 8.78,2.18 11.54,5.61 2,2.54 3.24,5.76 3.24,9.29z"/>
   <path fill="#BDBDBD" fill-rule="nonzero" d="M439.07 982.74c0,8.2 -6.67,14.91 -14.78,14.91 -3.33,0 -6.48,-1.2 -8.96,-3.18 -2.1,-2.53 -3.15,-5.72 -3.15,-9.2 0,-8.24 6.49,-14.9 14.59,-14.9 3.43,0 6.58,1.14 9.06,3.08 2,2.54 3.24,5.76 3.24,9.29z"/>
  </g>
  <path fill="url(#id0)" d="M3297.88 839.82c-274.51,-209.8 -340.67,-197 -633.24,-292.63 -292.57,-95.62 -545.58,-407.69 -879.23,-414.47 -678.12,-13.75 -835.82,434.11 -1097.3,845.97 -261.48,411.85 -606.51,670.13 -606.51,1029.18 1027.4,0 2288.35,-2.41 3315.74,-2.41 -110.51,-455.72 302.93,-858.1 -99.46,-1165.64z"/>
  <g class="mars">
   <circle fill="#E73D34" cx="1862.36" cy="2365.3" r="1264.49"/>
   <path fill="#D93033" fill-rule="nonzero" d="M2236.77 1795.14c0,0 -329.07,21.45 -586.57,239.62 -257.41,218.12 -704.43,253.89 -704.43,253.89 0,0 225.31,-64.37 275.35,-125.15 0,0 -338.89,147.44 -619.82,130.86 8.12,-145.64 41.4,-290.51 100.31,-427.57 106.43,-75.56 310.83,-193.72 573.71,-217.91 0,0 -72.04,35.41 -104.24,89.02 2.64,-1.32 173.93,-85.34 461.27,-108.72 289.7,-23.56 597.25,-171.1 665.14,-301.18 0,0 -3.49,84.47 -85.74,163.15 3.31,-0.95 218.79,-62.75 355.9,-173.48 41.07,27.74 81.01,58.21 119.54,91.42 68.18,58.77 128.61,123.26 181.01,192.15 -125.39,103.94 -380.82,263.39 -797.71,301.19 0,0 87.53,-14.31 166.28,-107.29z"/>
   <path fill="#D93033" fill-rule="nonzero" d="M2309.2 1183.9c-88.76,72.28 -249.28,216.13 -446.83,293.68 -255.14,100.14 -540.21,70.55 -540.21,70.55l64.4 -19.07c-280.17,-3.77 -493.66,90.25 -571.32,130.15 27.61,-40.76 57.92,-80.37 90.88,-118.56 49.38,-57.64 102.83,-109.51 159.67,-155.72 23.04,-18.79 46.55,-36.64 70.63,-53.56 103.59,-20.53 231.91,-35.97 383.66,-35.97 174.03,0 342.29,-66.75 342.29,-66.75 -53.54,7.15 -108.68,-11.92 -108.68,-11.92 127.19,-21.91 235.4,-67.6 300.27,-99.71 86.5,13.18 172.05,35.43 255.24,66.88z"/>
   <path fill="#D93033" fill-rule="nonzero" d="M2580.11 2500.87c0,0 -354.2,236 -845.4,274.14 0,0 144.09,-78.63 164.58,-107.24 -61.94,29.67 -166.19,89.65 -370.62,125.13 -462.78,80.29 -654.75,87.45 -831.71,60.07 -24.63,-58.94 -44.68,-119.42 -60.01,-180.93 -13.49,-54.29 -23.43,-109.35 -29.64,-164.78 151.84,12.85 423.83,23.77 648.28,-32.32 331.25,-82.78 683.74,-297.37 683.74,-297.37 0,0 -4.44,81.07 -121.24,147.82 0,0 975.89,-153.37 1178.35,-516.46 76.77,156.76 119.54,326.83 127.47,498.63l0.19 0.52c0.19,4.77 0.38,9.53 0.57,14.33 -89.05,83.22 -281.77,214.23 -646.16,267.64 0,0 125.49,-66.27 101.6,-89.18z"/>
   <path fill="#D93033" fill-rule="nonzero" d="M3117.59 2504.66c-20.31,187.28 -83.1,371.71 -189.05,537.68 -29.17,46.12 -61.85,90.67 -97.82,133.67 -141.17,70.92 -298.96,128.51 -422.28,149.74 0,0 132.29,-50.05 196.69,-114.43 -2.74,1.6 -176.95,104.64 -386.2,143.37 -211.05,39.01 -493.57,-7.49 -686.77,60.46 0,0 125.4,8.97 196.98,26.87 0,0 -96.98,1.58 -213.03,28.6 -51.93,12.11 -128.98,16.15 -223.69,22.02 -89.71,-45.36 -175.45,-102.31 -255.05,-170.94 -21.91,-18.81 -42.97,-38.34 -63.17,-58.33 -66.19,-65.4 -123.89,-136.61 -172.64,-212.07 91.81,-16.45 252.9,-34.81 418.9,-4.49 254.58,46.5 641.91,-128.75 641.91,-128.75 0,0 -50.32,64.38 -127.66,103.72 0,0 248.06,-29.8 480.54,-154.39 188.09,-100.79 642.76,-162.93 902.34,-362.73z"/>
   <path fill="#D93033" fill-rule="nonzero" d="M2461.89 3477.1c-270.53,145.77 -585.45,187.03 -882.13,119.02l-0.48 0.19c-2.83,-0.63 -5.76,-1.31 -8.59,-1.97 44.95,-25.81 171.38,-87.51 307.08,-55.17 132.19,31.5 402.82,-0.9 584.12,-62.07z"/>
   <path fill="#B72F33" fill-rule="nonzero" d="M1458.51 1908.39c0,160.27 -129.93,290.27 -290.27,290.27 -72.7,0 -138.99,-26.7 -190.08,-70.76l-0.09 -0.09c-61.28,-53.31 -100.09,-131.84 -100.09,-219.42 0,-160.36 129.93,-290.36 290.26,-290.36 87.63,0 166.29,38.86 219.64,100.3l0.29 0.27c43.81,50.92 70.34,117.29 70.34,189.79z"/>
   <path fill="#D23233" fill-rule="nonzero" d="M1458.51 1908.39c0,160.27 -129.93,290.27 -290.27,290.27 -72.7,0 -138.99,-26.7 -190.08,-70.76l-0.09 -0.09c-44,-51.02 -70.73,-117.38 -70.73,-190.08 0,-160.35 129.93,-290.25 290.27,-290.25 72.8,0 139.28,26.69 190.27,70.85l0.29 0.27c43.81,50.92 70.34,117.29 70.34,189.79z"/>
   <path fill="#B72F33" fill-rule="nonzero" d="M2472.65 1539.5c0,103.05 -83.57,186.63 -186.68,186.63 -46.65,0 -89.33,-17.16 -122.19,-45.49l0 -0.06c-39.47,-34.27 -64.4,-84.76 -64.4,-141.08 0,-103.1 83.57,-186.69 186.59,-186.69 56.37,0 106.89,24.99 141.17,64.48l0.19 0.17c28.23,32.75 45.32,75.42 45.32,122.04z"/>
   <path fill="#D23233" fill-rule="nonzero" d="M2472.65 1539.5c0,103.05 -83.57,186.63 -186.68,186.63 -46.65,0 -89.33,-17.16 -122.19,-45.49l0 -0.06c-28.33,-32.8 -45.51,-75.47 -45.51,-122.2 0,-103.12 83.57,-186.64 186.59,-186.64 46.93,0 89.61,17.17 122.28,45.55l0.19 0.17c28.23,32.75 45.32,75.42 45.32,122.04z"/>
   <path fill="#B72F33" fill-rule="nonzero" d="M2876.89 2295.7c0,165.28 -134.08,299.36 -299.52,299.36 -74.78,0 -143.24,-27.54 -195.84,-72.99l-0.09 -0.08c-63.36,-54.98 -103.4,-135.96 -103.4,-226.29 0,-165.37 134.08,-299.44 299.33,-299.44 90.46,0 171.57,40.06 226.53,103.42l0.28 0.28c45.23,52.52 72.71,120.97 72.71,195.74z"/>
   <path fill="#D23233" fill-rule="nonzero" d="M2876.89 2295.7c0,165.28 -134.08,299.36 -299.52,299.36 -74.78,0 -143.24,-27.54 -195.84,-72.99l-0.09 -0.08c-45.42,-52.62 -73,-121.06 -73,-196.02 0,-165.38 134,-299.35 299.34,-299.35 75.07,0 143.62,27.53 196.12,73.06l0.28 0.28c45.23,52.52 72.71,120.97 72.71,195.74z"/>
   <path fill="#B72F33" fill-rule="nonzero" d="M1265.5 2858.02c0,87.83 -71.29,159.1 -159.2,159.1 -39.85,0 -76.11,-14.64 -104.15,-38.79l-0.1 -0.05c-33.52,-29.22 -54.86,-72.26 -54.86,-120.26 0,-87.9 71.2,-159.16 159.11,-159.16 48.06,0 91.12,21.29 120.39,54.97l0.1 0.15c24.08,27.91 38.71,64.3 38.71,104.04z"/>
   <path fill="#D23233" fill-rule="nonzero" d="M1265.5 2858.02c0,87.83 -71.29,159.1 -159.2,159.1 -39.85,0 -76.11,-14.64 -104.15,-38.79l-0.1 -0.05c-24.08,-27.97 -38.71,-64.35 -38.71,-104.18 0,-87.91 71.2,-159.1 159.11,-159.1 39.85,0 76.39,14.63 104.24,38.83l0.1 0.15c24.08,27.91 38.71,64.3 38.71,104.04z"/>
   <path fill="#B72F33" fill-rule="nonzero" d="M1907.89 1927.21c0,46.13 -37.49,83.57 -83.57,83.57 -20.96,0 -40.04,-7.67 -54.77,-20.37l0 -0.02c-17.65,-15.36 -28.89,-37.97 -28.89,-63.18 0,-46.18 37.49,-83.61 83.66,-83.61 25.12,0 47.87,11.18 63.17,28.87l0.1 0.08c12.65,14.67 20.3,33.78 20.3,54.66z"/>
   <path fill="#D23233" fill-rule="nonzero" d="M1907.89 1927.21c0,46.13 -37.49,83.57 -83.57,83.57 -20.96,0 -40.04,-7.67 -54.77,-20.37l0 -0.02c-12.75,-14.7 -20.39,-33.81 -20.39,-54.73 0,-46.19 37.39,-83.59 83.66,-83.59 20.87,0 40.04,7.69 54.67,20.4l0.1 0.08c12.65,14.67 20.3,33.78 20.3,54.66z"/>
   <circle fill="#B72F33" cx="2751.26" cy="2881.99" r="135.13"/>
   <path fill="#D23233" fill-rule="nonzero" d="M2886.34 2882c0,74.61 -60.44,135.12 -135.13,135.12 -33.71,0 -64.68,-12.44 -88.38,-32.95l-0.1 -0.05c-20.49,-23.74 -32.95,-54.63 -32.95,-88.47 0,-74.63 60.53,-135.09 135.22,-135.09 33.8,0 64.68,12.41 88.38,32.97l0.19 0.13c20.49,23.7 32.77,54.59 32.77,88.34z"/>
   <circle fill="#B72F33" cx="1993.63" cy="3220.44" r="254.98"/>
   <path fill="#D23233" fill-rule="nonzero" d="M2248.67 3220.48c0,140.8 -114.25,255 -255.04,255 -63.84,0 -122.1,-23.45 -166.85,-62.16l-0.1 -0.09c-38.81,-44.8 -62.23,-103.13 -62.23,-166.97 0,-140.88 114.07,-255 255.05,-255 63.93,0 122.28,23.46 167.04,62.26l0.28 0.23c38.44,44.73 61.85,103.04 61.85,166.73z"/>
  </g>
  <path class="glow" fill="#E14A55" mask="url(#id1)" d="M881.96 2005.46l-113.64 0c28.41,-80.74 60.03,-147.82 86.12,-197.01 7.93,-14.99 18.4,-27.98 30.64,-38.81l0.51 -0.24c14.09,-12.6 30.64,-21.77 48.59,-27.53 -2.33,2.72 -4.31,5.43 -6.28,8.14 -3.43,1.53 -6.83,3.07 -10.2,4.6 3.39,-1.49 6.81,-2.98 10.26,-4.45 -35.73,49.13 -56.69,109.92 -56.69,175.54 0,27.62 3.73,54.37 10.69,79.76z"/>
  <path class="Shadow" fill="#2B2A29" fill-rule="nonzero" fill-opacity="0.188235" d="M2443.89 2005.46c-27.97,-48.07 -57.3,-92.64 -87.84,-133.97 -38.24,-51.97 -78.29,-98.79 -119.48,-140.97 -32.32,-32.94 -65.22,-63.06 -98.79,-90.55 -0.01,-0.01 -0.03,-0.02 -0.04,-0.03 -5.52,-4.51 -11.04,-8.93 -16.55,-13.3 -37.47,-29.61 -75.52,-56.05 -113.76,-79.63 -42.34,-25.98 -85.06,-48.52 -127.49,-67.96 -200.72,-91.82 -399.44,-115.45 -550.96,-115.45 -157.82,0 -264.07,25.63 -267.98,26.56 23.24,-19.21 46.96,-37.46 71.26,-54.75 83.62,-59.51 172.97,-107.64 265.85,-144.43 139.03,-55.43 286.07,-85.32 433.77,-89.16 75.71,-2.06 151.71,2.68 226.95,14.28 87.34,13.49 173.73,36.25 257.74,68.43 90.49,34.65 178.12,80.23 260.99,136.87 41.48,28.37 81.82,59.55 120.72,93.52 68.85,60.13 129.87,126.12 182.8,196.59 50.44,67.13 93.64,138.36 129.49,212.49 28.45,58.85 52.26,119.53 71.42,181.46l-638.1 0z"/>
  <g class="asteroid">
   <path fill="#D0CECD" fill-rule="nonzero" d="M3180.78 1257.85c0,0 -31.47,2.8 -38.9,27.94 -7.44,25.14 23.74,28.06 44.14,25.1 20.32,-2.94 22.41,-24.45 33,-30.13 10.68,-5.68 0.48,-38.65 -38.24,-22.91z"/>
   <path fill="#9EA0A0" fill-rule="nonzero" d="M3181.83 1286.2c0,6.95 -5.53,12.63 -12.4,12.63 -2.86,0 -5.53,-1.01 -7.63,-2.7 -2.95,-2.32 -4.86,-5.89 -4.86,-9.93 0,-6.99 5.53,-12.62 12.49,-12.62 3.91,0 7.44,1.85 9.73,4.76 1.72,2.14 2.67,4.88 2.67,7.86z"/>
   <path fill="#BDBDBD" fill-rule="nonzero" d="M3181.83 1286.2c0,6.95 -5.53,12.63 -12.4,12.63 -2.86,0 -5.53,-1.01 -7.63,-2.7 -1.71,-2.15 -2.67,-4.84 -2.67,-7.78 0,-6.99 5.54,-12.62 12.4,-12.62 2.86,0 5.53,0.96 7.63,2.61 1.72,2.14 2.67,4.88 2.67,7.86z"/>
   <path fill="#9EA0A0" fill-rule="nonzero" d="M3204.62 1271.83c0,4.2 -3.43,7.65 -7.63,7.65 -1.81,0 -3.34,-0.62 -4.67,-1.63 -1.72,-1.41 -2.86,-3.58 -2.86,-6.02 0,-4.25 3.34,-7.66 7.53,-7.66 2.48,0 4.48,1.12 5.91,2.87 1.05,1.3 1.72,2.96 1.72,4.79z"/>
   <path fill="#BDBDBD" fill-rule="nonzero" d="M3204.62 1271.83c0,4.2 -3.43,7.65 -7.63,7.65 -1.81,0 -3.34,-0.62 -4.67,-1.63 -0.95,-1.31 -1.62,-2.93 -1.62,-4.73 0,-4.23 3.43,-7.66 7.63,-7.66 1.62,0 3.33,0.59 4.57,1.58 1.05,1.3 1.72,2.96 1.72,4.79z"/>
  </g>
  <path class="aura-2" fill="#374257" d="M415.68 2005.46c17.16,-62.33 38.25,-123.63 63.18,-183.68 76.43,-182.06 185.49,-345.83 323.75,-486.08 18.03,-18.29 36.07,-35.72 54.96,-53.14 70.41,-68.82 158.01,-127.18 176.9,-139.38 78.14,-52.27 160.58,-97.56 247.32,-135.02 186.34,-79.27 383.85,-120.22 587.38,-120.22 204.38,0 401.88,40.95 588.23,120.22 179.48,77.53 340.92,187.29 479.18,327.54 138.26,140.25 247.32,304.02 323.75,486.08 24.93,60.05 46.02,121.35 63.18,183.68l-112.74 0c-174.17,-583.28 -709.06,-1007.76 -1341.6,-1007.76 -631.85,0 -1166.61,424.48 -1340.76,1007.76l-112.73 0z"/>
  <path class="aura-1" fill="#3B495D" d="M528.81 2005.46c174,-583.11 708.21,-1007.48 1340.68,-1007.48 632.46,0 1166.67,424.37 1340.68,1007.48l-128.17 0c-4.66,-15.02 -9.6,-29.96 -14.81,-44.82 0,0 0,-0.81 0,-0.81 0,0 -0.8,-0.8 -0.8,-0.8 0,-0.81 0,-0.81 0,-1.62 0,0 -0.8,0 -0.8,-0.81 0,0 0,-0.81 0,-1.62 0,0 0,0 0,0 -15.97,-44.49 -34.33,-88.18 -55.09,-131.05 -35.93,-74.43 -79.05,-145.61 -129.36,-212.76 -31.14,-40.45 -64.67,-80.08 -100.6,-118.1 -0.8,0 -0.8,0 -0.8,0 0,-0.81 0,-0.81 -0.8,-0.81 -25.55,-26.7 -52.7,-52.59 -80.64,-77.66 -241.14,-210.33 -537.37,-313.88 -832.81,-313.88 -231.55,0 -463.11,64.72 -665.92,190.1 -23.15,13.76 -45.51,29.13 -67.07,44.5 -19.96,13.75 -38.33,28.31 -57.49,43.68 -4.79,3.24 -9.58,7.28 -14.37,11.33 0,0 0,0 0,0 0,0 0,0 0,0 -57.49,46.92 -110.99,100.31 -161.29,159.36 -32.74,38.83 -63.88,79.28 -91.82,121.35 -44.72,67.95 -83.05,139.14 -114.19,211.94 -17.13,40.28 -32.11,81.16 -44.95,122.48l-119.58 0z"/>
  <path class="star" fill="#C5C6C6" fill-rule="nonzero" d="M2085.44 340.89c-29.61,3.39 -32.33,6.13 -35.66,36.16 -3.37,-30.03 -6.05,-32.77 -35.71,-36.16 29.66,-3.38 32.34,-6.13 35.71,-36.16 3.33,30.03 6.05,32.78 35.66,36.16z"/>
  <path class="star" fill="#C5C6C6" fill-rule="nonzero" d="M3150.83 778.02c-29.62,3.38 -32.34,6.13 -35.67,36.15 -3.37,-30.02 -6.05,-32.77 -35.71,-36.15 29.66,-3.39 32.34,-6.13 35.71,-36.16 3.33,30.03 6.05,32.77 35.67,36.16z"/>
  <path fill="#C5C6C6" d="M1409.28 399.05c5.36,0 9.71,4.45 9.71,9.94 0,5.49 -4.35,9.94 -9.71,9.94 -5.36,0 -9.71,-4.45 -9.71,-9.94 0,-5.49 4.35,-9.94 9.71,-9.94z"/>
  <path fill="#C5C6C6" d="M2122.81 653.5c5.37,0 9.71,4.45 9.71,9.94 0,5.49 -4.34,9.94 -9.71,9.94 -5.36,0 -9.7,-4.45 -9.7,-9.94 0,-5.49 4.34,-9.94 9.7,-9.94z"/>
  <path fill="#C5C6C6" d="M2511.5 590.35c5.37,0 9.71,4.45 9.71,9.94 0,5.49 -4.34,9.94 -9.71,9.94 -5.36,0 -9.7,-4.45 -9.7,-9.94 0,-5.49 4.34,-9.94 9.7,-9.94z"/>
  <path fill="#C5C6C6" d="M2900.87 970.6c5.36,0 9.71,4.45 9.71,9.94 0,5.48 -4.35,9.93 -9.71,9.93 -5.36,0 -9.71,-4.45 -9.71,-9.93 0,-5.49 4.35,-9.94 9.71,-9.94z"/>
  <g class="231167693104">
   <polygon fill="#79C7D3" fill-rule="nonzero" points="2036.66,800.49 1825.68,679.18 1741.67,768.97 1741.67,773.66 2036.66,805.17 "/>
   <polygon fill="#544343" fill-rule="nonzero" points="1796.26,891.43 1782.39,891.43 1782.39,868.53 1796.26,868.53 "/>
   <polygon fill="#544343" fill-rule="nonzero" points="1862.54,891.43 1826.06,891.43 1826.06,868.53 1862.54,868.53 "/>
   <polygon fill="#FFE8CC" fill-rule="nonzero" points="1690.79,611.93 1701.96,530.75 1718.5,525.71 1739.66,597.03 "/>
   <polygon fill="#FFE8CC" fill-rule="nonzero" points="1641.02,587.58 1762.79,550.48 1777.5,600 1655.73,637.1 "/>
   <polygon fill="#52A4A8" fill-rule="nonzero" points="2036.66,805.17 1825.68,683.87 1741.67,773.66 1973.79,866.15 "/>
   <polygon fill="#5EAEB7" fill-rule="nonzero" points="2036.66,805.17 1741.67,773.66 1973.79,866.15 "/>
   <polygon fill="#FFE8CC" fill-rule="nonzero" points="1577.39,805.54 1790.1,619.18 1779.41,615.8 1538.21,790.51 "/>
   <polygon fill="#E0AE85" fill-rule="nonzero" points="1660.56,701.88 1779.41,615.8 1790.1,619.18 1686.5,709.94 "/>
   <polygon fill="#EFC7A3" fill-rule="nonzero" points="1561.97,787.84 1791.13,895.07 1686.31,899.23 1538.21,790.51 "/>
   <polygon fill="#E0AE85" fill-rule="nonzero" points="1561.97,787.84 1675.09,840.77 1598.75,834.94 1538.21,790.51 "/>
   <path fill="#3D2F2F" fill-rule="nonzero" d="M1489.53 1044.2c0,-30.9 23.24,-55.96 51.89,-55.96 28.66,0 51.9,25.06 51.9,55.96 0,30.9 -23.24,55.95 -51.9,55.95 -28.65,0 -51.89,-25.05 -51.89,-55.95z"/>
   <path fill="#C14834" fill-rule="nonzero" d="M1602.81 977.36c25.93,-26.27 61.1,-41.03 97.77,-41.03l0.32 0.05c2.95,0.21 4.4,3.3 4.35,6.36l-0.01 0.16 -0.08 0.96 -0.06 0.33 -0.17 0.76 -0.15 0.45 -0.21 0.57 -0.28 0.51 -0.23 0.42 -0.4 0.49 -0.25 0.3 -0.53 0.4 -0.27 0.21 -0.67 0.28 -0.28 0.1c-0.33,0.09 -0.69,0.14 -1.08,0.14 -33.4,0 -65.43,13.45 -89.05,37.37l-55.72 56.45 -8.71 -8.83 55.71 -56.45z"/>
   <path fill="#3D2F2F" fill-rule="nonzero" d="M1778.79 1044.2c0,-30.9 23.24,-55.96 51.89,-55.96 28.67,0 51.9,25.06 51.9,55.96 0,30.9 -23.23,55.96 -51.9,55.96 -28.65,0 -51.89,-25.06 -51.89,-55.96z"/>
   <path fill="#3D2F2F" fill-rule="nonzero" d="M1907.24 1044.2c0,-30.9 23.23,-55.96 51.89,-55.96 28.66,0 51.89,25.06 51.89,55.96 0,30.9 -23.23,55.96 -51.89,55.96 -28.66,0 -51.89,-25.06 -51.89,-55.96z"/>
   <path fill="#C14834" fill-rule="nonzero" d="M1836.85 1034.05l166.61 0 -5.4 -5.46 -41.19 -41.73c-28.15,-28.53 -66.34,-44.55 -106.15,-44.55l0 -12.5 0.06 0.01 0 -0.58c0.78,0 26.21,1.76 34.21,4.28l0 0.04c30.29,6.63 58.35,21.92 80.6,44.47l62.24 63.05 5.4 5.47 -198.69 0 0 -12.5 2.31 0z"/>
   <polygon fill="#3D2F2F" fill-rule="nonzero" points="2036.96,843.96 2109.38,760.31 2104.83,757.06 2022.16,841.99 2058.81,901.43 2095.01,911.18 "/>
   <polygon fill="#3D2F2F" fill-rule="nonzero" points="1938.06,847.19 1906.06,795.7 1908.55,794.95 1949.64,849.08 1917.26,901.58 1891.31,901.58 "/>
   <polygon fill="#FFE8CC" fill-rule="nonzero" points="1586.15,887.78 2102.45,887.78 2132.27,925.35 2132.27,966.39 2088.09,1006.46 1565.06,1006.46 1543.75,988.58 1543.75,929.68 "/>
   <polygon fill="#EFC7A3" fill-rule="nonzero" points="1676.03,1003.05 1676.03,929.62 1713.02,887.78 2102.45,887.78 2132.27,925.35 2132.27,970.04 2092.72,1006.46 1565.06,1006.46 1560.99,1003.05 "/>
   <polygon fill="#CC9266" fill-rule="nonzero" points="2119.39,969.51 2116.26,969.51 2116.26,926.17 2119.39,926.17 "/>
   <polygon fill="#CC9266" fill-rule="nonzero" points="2105.9,969.51 2102.77,969.51 2102.77,926.17 2105.9,926.17 "/>
   <polygon fill="#CC9266" fill-rule="nonzero" points="2092.42,969.51 2089.29,969.51 2089.29,926.17 2092.42,926.17 "/>
   <polygon fill="#CC9266" fill-rule="nonzero" points="2078.93,969.51 2075.8,969.51 2075.8,926.17 2078.93,926.17 "/>
   <polygon fill="#CC9266" fill-rule="nonzero" points="2065.44,969.51 2062.31,969.51 2062.31,926.17 2065.44,926.17 "/>
   <polygon fill="#CC9266" fill-rule="nonzero" points="2051.96,969.51 2048.83,969.51 2048.83,926.17 2051.96,926.17 "/>
   <polygon fill="#E0AE85" fill-rule="nonzero" points="1847.1,898.2 1971.01,898.2 2024.38,976.8 1886.98,976.8 1834.54,947.24 "/>
   <polygon fill="#CC9266" fill-rule="nonzero" points="1738.72,997.1 2102.95,997.1 2091.24,1006.47 1738.72,1006.47 "/>
   <polygon fill="#E0AE85" fill-rule="nonzero" points="1676.03,944.05 1676.03,929.62 1713.02,887.78 2102.45,887.78 2106.77,893.23 1726.39,907.04 "/>
   <polygon fill="#56AAB2" fill-rule="nonzero" points="2213.86,949.3 1948.73,716.94 1965.96,594.43 1973.12,591.4 2221.03,946.27 "/>
   <polygon fill="#79C7D3" fill-rule="nonzero" points="2221.03,946.27 1955.9,713.92 1973.12,591.4 2226.54,816.54 "/>
   <g class="head-group">
    <polygon class="head" fill="#FFE8CC" fill-rule="nonzero" points="1791.13,618.67 1789.06,595.76 1649.83,555.16 1493.64,594.72 1553.76,699.34 1687.86,669.16 "/>
    <polygon class="head" fill="#EFC7A3" fill-rule="nonzero" points="1792.22,623.04 1789.06,595.76 1649.83,555.16 1687.86,669.16 "/>
    <polygon class="head" fill="#5B4343" fill-rule="nonzero" points="1556.84,692.58 1503.4,597.84 1632.92,568.7 1663.38,666.02 "/>
    <polygon class="head" fill="#3D2F2F" fill-rule="nonzero" points="1632.92,568.7 1637.34,582.8 1521.9,608.77 1567.65,689.88 1556.84,692.58 1503.4,597.84 "/>
    <path class="head" fill="#BBF3F9" fill-rule="nonzero" d="M1615.38 624.11c-5.09,-15.94 -5.26,-30.17 -0.38,-31.77 4.89,-1.6 12.98,10.02 18.07,25.97 5.1,15.94 5.27,30.17 0.38,31.76 -4.87,1.61 -12.96,-10.02 -18.07,-25.96z"/>
    <path class="head" fill="#BBF3F9" fill-rule="nonzero" d="M1554.65 642.16c-5.48,-14.69 -6.45,-27.92 -2.18,-29.55 4.28,-1.64 12.19,8.94 17.66,23.62 5.48,14.69 6.46,27.92 2.19,29.56 -4.28,1.63 -12.19,-8.95 -17.67,-23.63z"/>
    <path class="flash" fill="#EBCC42" fill-rule="nonzero" d="M1692.78 565c-53.8,25.19 -57.25,32.11 -44.95,90.91 -24.95,-54.55 -31.71,-58.03 -89.79,-45.58 53.9,-25.23 57.25,-32.12 45.04,-90.95 24.86,54.58 31.7,58.03 89.7,45.62z"/>
   </g>
   <path fill="#E0AE85" fill-rule="nonzero" d="M1739.41 609.43c0,-9.99 4.51,-18.9 11.59,-24.77l38.06 11.1 3.16 27.28 -34.67 15.32c-10.72,-5.12 -18.14,-16.13 -18.14,-28.93z"/>
   <polygon fill="#BBF3F9" fill-rule="nonzero" points="2216.13,932.13 1962.71,711.66 1978.85,603.58 2220.85,819.63 "/>
   <polygon fill="#D2FDFF" fill-rule="nonzero" points="2112.64,723.02 2220.85,819.63 2217.71,894.26 "/>
   <polygon fill="#D2FDFF" fill-rule="nonzero" points="2086.13,819.04 1962.71,711.66 1978.66,604.85 "/>
   <path fill="#EFC7A3" fill-rule="nonzero" d="M1744.41 608.26c0,-17.68 14.15,-32.02 31.6,-32.02 17.45,0 31.6,14.34 31.6,32.02 0,17.68 -14.15,32.01 -31.6,32.01 -17.45,0 -31.6,-14.33 -31.6,-32.01z"/>
   <path fill="#513F3F" fill-rule="nonzero" d="M1773.91 607.22c0,-9.35 6.05,-16.93 13.53,-16.93 7.47,0 13.52,7.58 13.52,16.93 0,9.34 -6.05,16.91 -13.52,16.91 -7.48,0 -13.53,-7.57 -13.53,-16.91z"/>
   <path fill="#3D2F2F" fill-rule="nonzero" d="M1818.86 799.55c0,-3.3 11.74,-9.63 26.21,-9.63 14.47,0 26.2,6.33 26.2,9.63 0,3.32 -11.73,5.99 -26.2,5.99 -14.47,0 -26.21,-2.67 -26.21,-5.99z"/>
   <polygon fill="#FFE8CC" fill-rule="nonzero" points="1874.61,878.93 1813.73,878.93 1813.73,799.28 1874.61,799.28 "/>
   <path fill="#EFC7A3" fill-rule="nonzero" d="M1825.8 870.09c14.62,0 26.46,-25.64 26.46,-57.26 0,-4.67 -0.29,-9.19 -0.78,-13.55l23.13 0 0 79.65 -60.88 0 0 -15.19c3.62,4.03 7.72,6.35 12.07,6.35z"/>
   <polygon fill="#FFE8CC" fill-rule="nonzero" points="1800.89,878.93 1779.27,878.93 1779.27,847.61 1800.89,847.61 "/>
   <path fill="#EFC7A3" fill-rule="nonzero" d="M1781.11 873.73c6.4,0 11.68,-11.39 12.47,-26.12l7.31 0 0 31.32 -21.62 0 0 -5.55c0.6,0.21 1.21,0.35 1.84,0.35z"/>
   <path fill="#FF9B40" fill-rule="nonzero" d="M1965.55 1037.82l198.69 0 -67.63 -68.52c-30.47,-30.87 -71.79,-48.21 -114.87,-48.21l0 12.5c39.81,0 78,16.02 106.15,44.55l46.59 47.19 -168.93 0 0 12.49z"/>
   <path fill="#F77C37" fill-rule="nonzero" d="M2015.95 931.59c35.6,8.83 52.87,20.22 74.25,41.08l46.59 47.2 -7.71 0 -41.18 -41.74c-28.16,-28.52 -66.35,-44.54 -106.16,-44.54l0.06 -13.08c0.77,0 26.2,1.76 34.21,4.28l-0.06 6.8z"/>
   <polygon fill="#F77C37" fill-rule="nonzero" points="1967.86,1025.33 1967.86,1032.36 2158.85,1032.36 2164.25,1037.82 1965.55,1037.82 1965.55,1025.33 "/>
   <path fill="#FFE8CC" fill-rule="nonzero" d="M1834.54 902.35l137.95 0c24.71,0 24.71,46.85 0,46.85l-137.95 0 0 -46.85z"/>
   <polygon fill="#EFC7A3" fill-rule="nonzero" points="1847.64,921.09 1858.69,921.09 1871.79,949.21 1860.75,949.21 "/>
   <path fill="#FFDEBB" fill-rule="nonzero" d="M1875.38 902.35l97.11 0c24.71,0 24.71,46.85 0,46.85l-97.11 0c24.72,0 24.72,-46.85 0,-46.85z"/>
   <path fill="#FF9B40" fill-rule="nonzero" d="M1710.58 1025.85l55.72 -56.46c23.62,-23.92 55.65,-37.37 89.05,-37.37 6.23,0 6.23,-12.49 0,-12.49 -36.68,0 -71.85,14.76 -97.77,41.03l-55.72 56.45 8.72 8.84z"/>
   <path fill="#F77C37" fill-rule="nonzero" d="M1706.47 1021.68l55.71 -56.45c23.63,-23.93 55.66,-37.37 89.06,-37.37 3.8,0 5.27,-4.67 4.43,-8.29 5.89,0.44 5.79,12.45 -0.32,12.45 -33.41,0 -65.44,13.45 -89.06,37.37l-55.71 56.46 -8.72 -8.85 4.61 4.68z"/>
   <path fill="#FFE8CC" fill-rule="nonzero" d="M1536.34 794.02c0,-17.35 14.02,-31.42 31.32,-31.42 17.29,0 31.31,14.07 31.31,31.42 0,17.36 -14.02,31.43 -31.31,31.43 -17.3,0 -31.32,-14.07 -31.32,-31.43z"/>
   <path fill="#EFC7A3" fill-rule="nonzero" d="M1557.14 802.68c17.45,0 31.6,-14.33 31.6,-32.02l-0.01 -0.11c6.61,5.87 10.8,14.46 10.8,24.06 0,17.68 -14.14,32.02 -31.6,32.02 -17.42,0 -31.53,-14.28 -31.59,-31.91 5.56,4.94 12.82,7.96 20.8,7.96z"/>
   <path fill="#513F3F" fill-rule="nonzero" d="M1563.13 796.17c0,-8.74 6.61,-15.83 14.76,-15.83 8.15,0.01 14.76,7.09 14.76,15.83 0,8.75 -6.61,15.84 -14.76,15.84 -8.15,0 -14.76,-7.09 -14.76,-15.84z"/>
   <path fill="#544343" fill-rule="nonzero" d="M1780.32 1042.66c0,32.19 -25.76,58.29 -57.53,58.29 -31.78,0 -57.54,-26.1 -57.54,-58.29 0,-32.19 25.76,-58.3 57.54,-58.3 31.77,0 57.53,26.11 57.53,58.3z"/>
   <path fill="#3D3032" fill-rule="nonzero" d="M1770.08 1042.66c0,23.86 -16.29,43.21 -36.39,43.21 -20.09,0 -36.38,-19.35 -36.38,-43.21 0,-23.87 16.29,-43.21 36.38,-43.21 20.1,0 36.39,19.34 36.39,43.21z"/>
   <path fill="#7C6363" fill-rule="nonzero" d="M1749.1 1043.39c0,15.8 -10.78,28.6 -24.08,28.6 -13.31,0 -24.09,-12.8 -24.09,-28.6 0,-15.8 10.78,-28.61 24.09,-28.61 13.3,0 24.08,12.81 24.08,28.61z"/>
   <path fill="#7C6363" fill-rule="nonzero" d="M1754.64 1043.39c0,1.15 -0.78,2.08 -1.74,2.08 -0.97,0 -1.75,-0.93 -1.75,-2.08 0,-1.14 0.78,-2.08 1.75,-2.08 0.96,0 1.74,0.94 1.74,2.08z"/>
   <path fill="#7C6363" fill-rule="nonzero" d="M1727.73 1009.57c0,1.15 -0.77,2.08 -1.75,2.08 -0.96,0 -1.75,-0.93 -1.75,-2.08 0,-1.14 0.79,-2.07 1.75,-2.07 0.98,0 1.75,0.93 1.75,2.07z"/>
   <path fill="#7C6363" fill-rule="nonzero" d="M1727.73 1076.22c0,1.15 -0.77,2.08 -1.75,2.08 -0.96,0 -1.75,-0.93 -1.75,-2.08 0,-1.15 0.79,-2.07 1.75,-2.07 0.98,0 1.75,0.92 1.75,2.07z"/>
   <path fill="#AD9393" fill-rule="nonzero" d="M1747.97 1043.39c0,14.11 -9.62,25.54 -21.47,25.54 -11.87,0 -21.48,-11.44 -21.48,-25.54 0,-14.1 9.61,-25.54 21.48,-25.54 11.85,0 21.47,11.44 21.47,25.54z"/>
   <path fill="#7C6565" fill-rule="nonzero" d="M1722.79 984.36c3.02,0 5.96,0.31 8.85,0.77 -68.71,4.42 -66.66,109.57 0,115.06 -2.89,0.45 -5.83,0.76 -8.85,0.76 -31.78,0 -57.54,-26.1 -57.54,-58.29 0,-32.19 25.76,-58.3 57.54,-58.3z"/>
   <path fill="#685353" fill-rule="nonzero" d="M1681.04 1068.41c1.83,0 3.62,-0.11 5.4,-0.26 7.53,16.9 22.66,30.18 45.2,32.04 -2.89,0.45 -5.83,0.76 -8.85,0.76 -22.99,0 -42.77,-13.7 -51.98,-33.43 3.33,0.55 6.73,0.89 10.23,0.89z"/>
   <path fill="#544343" fill-rule="nonzero" d="M2061.26 1042.66c0,32.19 -25.76,58.29 -57.54,58.29 -31.76,0 -57.52,-26.1 -57.52,-58.29 0,-32.19 25.76,-58.29 57.52,-58.29 31.78,0 57.54,26.1 57.54,58.29z"/>
   <path fill="#3D3032" fill-rule="nonzero" d="M2051.02 1042.66c0,23.86 -16.29,43.21 -36.38,43.21 -20.1,0 -36.39,-19.35 -36.39,-43.21 0,-23.87 16.29,-43.21 36.39,-43.21 20.09,0 36.38,19.34 36.38,43.21z"/>
   <path fill="#7C6363" fill-rule="nonzero" d="M2030.05 1043.39c0,15.8 -10.79,28.6 -24.09,28.6 -13.3,0 -24.09,-12.8 -24.09,-28.6 0,-15.8 10.79,-28.61 24.09,-28.61 13.3,0 24.09,12.81 24.09,28.61z"/>
   <path fill="#7C6363" fill-rule="nonzero" d="M2035.59 1043.39c0,1.15 -0.78,2.08 -1.75,2.08 -0.97,0 -1.75,-0.93 -1.75,-2.08 0,-1.14 0.78,-2.08 1.75,-2.08 0.97,0 1.75,0.94 1.75,2.08z"/>
   <path fill="#7C6363" fill-rule="nonzero" d="M2008.68 1009.57c0,1.15 -0.78,2.08 -1.75,2.08 -0.97,0 -1.75,-0.93 -1.75,-2.08 0,-1.14 0.78,-2.07 1.75,-2.07 0.97,0 1.75,0.93 1.75,2.07z"/>
   <path fill="#7C6363" fill-rule="nonzero" d="M2008.68 1076.22c0,1.15 -0.78,2.08 -1.75,2.08 -0.97,0 -1.75,-0.93 -1.75,-2.08 0,-1.15 0.78,-2.07 1.75,-2.07 0.97,0 1.75,0.92 1.75,2.07z"/>
   <path fill="#AD9393" fill-rule="nonzero" d="M2028.91 1043.39c0,14.11 -9.61,25.54 -21.47,25.54 -11.86,0 -21.48,-11.44 -21.48,-25.54 0,-14.1 9.62,-25.54 21.48,-25.54 11.86,0 21.47,11.44 21.47,25.54z"/>
   <path fill="#7C6565" fill-rule="nonzero" d="M2003.72 984.37c3.03,0 5.98,0.3 8.87,0.76 -68.72,4.42 -66.66,109.57 0,115.06 -2.89,0.45 -5.84,0.76 -8.87,0.76 -31.76,0 -57.52,-26.1 -57.52,-58.29 0,-32.19 25.76,-58.29 57.52,-58.29z"/>
   <path fill="#685353" fill-rule="nonzero" d="M1961.99 1068.41c1.82,0 3.61,-0.11 5.4,-0.26 7.52,16.9 22.66,30.18 45.2,32.04 -2.89,0.45 -5.84,0.76 -8.87,0.76 -22.97,0 -42.75,-13.7 -51.96,-33.43 3.33,0.55 6.73,0.89 10.23,0.89z"/>
   <path fill="#544343" fill-rule="nonzero" d="M2212.32 1042.66c0,32.19 -25.76,58.29 -57.54,58.29 -31.77,0 -57.53,-26.1 -57.53,-58.29 0,-32.19 25.76,-58.29 57.53,-58.29 31.78,0 57.54,26.1 57.54,58.29z"/>
   <path fill="#3D3032" fill-rule="nonzero" d="M2202.08 1042.66c0,23.86 -16.29,43.21 -36.39,43.21 -20.09,0 -36.39,-19.35 -36.39,-43.21 0,-23.87 16.3,-43.21 36.39,-43.21 20.1,0 36.39,19.34 36.39,43.21z"/>
   <path fill="#7C6363" fill-rule="nonzero" d="M2181.1 1043.39c0,15.8 -10.78,28.6 -24.08,28.6 -13.31,0 -24.1,-12.8 -24.1,-28.6 0,-15.8 10.79,-28.61 24.1,-28.61 13.3,0 24.08,12.81 24.08,28.61z"/>
   <path fill="#7C6363" fill-rule="nonzero" d="M2186.64 1043.39c0,1.15 -0.78,2.08 -1.74,2.08 -0.97,0 -1.75,-0.93 -1.75,-2.08 0,-1.14 0.78,-2.08 1.75,-2.08 0.96,0 1.74,0.94 1.74,2.08z"/>
   <path fill="#7C6363" fill-rule="nonzero" d="M2159.73 1009.57c0,1.15 -0.78,2.08 -1.75,2.08 -0.96,0 -1.75,-0.93 -1.75,-2.08 0,-1.14 0.79,-2.07 1.75,-2.07 0.97,0 1.75,0.93 1.75,2.07z"/>
   <path fill="#7C6363" fill-rule="nonzero" d="M2159.73 1076.22c0,1.15 -0.78,2.08 -1.75,2.08 -0.96,0 -1.75,-0.93 -1.75,-2.08 0,-1.15 0.79,-2.07 1.75,-2.07 0.97,0 1.75,0.92 1.75,2.07z"/>
   <path fill="#AD9393" fill-rule="nonzero" d="M2179.97 1043.39c0,14.11 -9.62,25.54 -21.48,25.54 -11.85,0 -21.47,-11.44 -21.47,-25.54 0,-14.1 9.62,-25.54 21.47,-25.54 11.86,0 21.48,11.44 21.48,25.54z"/>
   <path fill="#7C6565" fill-rule="nonzero" d="M2154.78 984.37c3.02,0 5.96,0.3 8.86,0.76 -68.71,4.42 -66.66,109.57 0,115.06 -2.9,0.45 -5.84,0.76 -8.86,0.76 -31.77,0 -57.53,-26.1 -57.53,-58.29 0,-32.19 25.76,-58.29 57.53,-58.29z"/>
   <path fill="#685353" fill-rule="nonzero" d="M2113.04 1068.41c1.82,0 3.62,-0.11 5.4,-0.26 7.53,16.9 22.65,30.18 45.2,32.04 -2.9,0.45 -5.84,0.76 -8.86,0.76 -22.98,0 -42.76,-13.7 -51.97,-33.43 3.33,0.55 6.73,0.89 10.23,0.89z"/>
   <path fill="#3D2F2F" fill-rule="nonzero" d="M1900.3 796.7c0,-5.18 3.79,-9.37 8.47,-9.37 4.69,0 8.48,4.19 8.48,9.37 0,5.17 -3.79,9.36 -8.48,9.36 -4.68,0 -8.47,-4.19 -8.47,-9.36z"/>
   <polygon fill="#79C7D3" fill-rule="nonzero" points="2195.97,793.56 2198.55,793.57 2188.23,910.12 2185.65,910.1 "/>
   <polygon fill="#79C7D3" fill-rule="nonzero" points="1962.56,680.15 1964.25,678.18 2223.2,902.46 2221.51,904.42 "/>
   <polygon fill="#79C7D3" fill-rule="nonzero" points="1970.95,634.8 1972.65,632.83 2224.1,856.24 2222.4,858.22 "/>
   <polygon fill="#79C7D3" fill-rule="nonzero" points="2163.84,763.31 2166.42,763.37 2154.07,879.71 2151.48,879.65 "/>
   <polygon fill="#79C7D3" fill-rule="nonzero" points="2131.86,735.5 2134.43,735.55 2122.08,851.89 2119.5,851.83 "/>
   <polygon fill="#79C7D3" fill-rule="nonzero" points="2099.87,707.68 2102.46,707.74 2090.1,824.08 2087.52,824.02 "/>
   <polygon fill="#79C7D3" fill-rule="nonzero" points="2067.89,679.87 2070.47,679.93 2058.12,796.27 2055.54,796.2 "/>
   <polygon fill="#79C7D3" fill-rule="nonzero" points="2035.91,652.06 2038.49,652.11 2026.14,768.45 2023.55,768.39 "/>
   <polygon fill="#79C7D3" fill-rule="nonzero" points="2003.92,624.24 2006.51,624.3 1994.15,740.63 1991.57,740.58 "/>
   <path fill="#EFC7A3" fill-rule="nonzero" d="M1567.76 796.17c0,-6.25 4.88,-11.32 10.9,-11.32 6.01,0 10.91,5.07 10.91,11.32 0,6.26 -4.9,11.33 -10.91,11.33 -6.02,0 -10.9,-5.08 -10.9,-11.33z"/>
   <path fill="#EFC7A3" fill-rule="nonzero" d="M1775.86 607.99c0,-6.13 3.98,-11.1 8.88,-11.1 4.9,0 8.87,4.97 8.87,11.1 0,6.14 -3.97,11.1 -8.87,11.1 -4.9,0 -8.88,-4.96 -8.88,-11.1z"/>
   <polygon fill="#CC9266" fill-rule="nonzero" points="1978.91,928.51 1907.62,928.51 1907.62,920.32 1978.91,920.32 "/>
   <polygon fill="#CC9266" fill-rule="nonzero" points="1585.57,898.2 1689.14,898.2 1670.95,918.33 1567.36,918.33 "/>
   <path fill="#C14834" fill-rule="nonzero" d="M1535.77 1039.52c0,-8.76 5.64,-15.87 12.59,-15.87 6.95,0 12.58,7.11 12.58,15.87 0,8.77 -5.63,15.88 -12.58,15.88 -6.95,0 -12.59,-7.11 -12.59,-15.88z"/>
   <path fill="#C14834" fill-rule="nonzero" d="M1823.23 1039.52c0,-8.76 5.64,-15.87 12.59,-15.87 6.95,0 12.58,7.11 12.58,15.87 0,8.77 -5.63,15.88 -12.58,15.88 -6.95,0 -12.59,-7.11 -12.59,-15.88z"/>
  </g>
  <path fill="#C5C6C6" d="M1189.53 819.86c5.37,0 9.71,4.45 9.71,9.94 0,5.49 -4.34,9.94 -9.71,9.94 -5.36,0 -9.7,-4.45 -9.7,-9.94 0,-5.49 4.34,-9.94 9.7,-9.94z"/>
  <path fill="#C5C6C6" d="M1028.02 1274.3c5.36,0 9.71,4.46 9.71,9.94 0,5.49 -4.35,9.94 -9.71,9.94 -5.36,0 -9.71,-4.45 -9.71,-9.94 0,-5.48 4.35,-9.94 9.71,-9.94z"/>
  <path fill="#C5C6C6" d="M462.88 1444.02c5.36,0 9.71,4.45 9.71,9.94 0,5.49 -4.35,9.94 -9.71,9.94 -5.36,0 -9.71,-4.45 -9.71,-9.94 0,-5.49 4.35,-9.94 9.71,-9.94z"/>
  <path class="star" fill="#EBCC42" fill-rule="nonzero" d="M3207.21 1587.95c-91.63,10.47 -99.99,18.96 -110.32,111.77 -10.35,-92.81 -18.71,-101.3 -110.34,-111.77 91.63,-10.47 99.99,-18.95 110.34,-111.77 10.33,92.82 18.69,101.3 110.32,111.77z"/>
  <g class="asteroid">
   <path fill="#D0CECD" fill-rule="nonzero" d="M2812.19 510.48c0,0 -48.76,78.56 -4.38,140.36 44.43,61.78 106.02,-6.46 135.07,-59.41 29.03,-52.94 -16.34,-95.88 -10.74,-130.77 5.66,-34.95 -87.62,-69.08 -119.95,49.82z"/>
   <path fill="#9EA0A0" fill-rule="nonzero" d="M2889.92 606.34c0,17.77 -14.34,32.27 -31.85,32.27 -7.47,0 -14.24,-2.55 -19.68,-6.89 -7.41,-5.92 -12.18,-15.06 -12.18,-25.38 0,-17.89 14.23,-32.31 31.86,-32.31 10.1,0 19.04,4.75 24.86,12.18 4.36,5.48 6.99,12.47 6.99,20.13z"/>
   <path fill="#BDBDBD" fill-rule="nonzero" d="M2889.92 606.34c0,17.77 -14.34,32.27 -31.85,32.27 -7.47,0 -14.24,-2.55 -19.68,-6.89 -4.25,-5.48 -6.77,-12.39 -6.77,-19.9 0,-17.85 14.37,-32.28 31.86,-32.28 7.33,0 14.13,2.47 19.45,6.67 4.36,5.48 6.99,12.47 6.99,20.13z"/>
   <path fill="#9EA0A0" fill-rule="nonzero" d="M2889.92 507.92c0,11.53 -9.29,20.98 -20.67,20.98 -4.85,0 -9.24,-1.66 -12.79,-4.47 -4.81,-3.85 -7.94,-9.79 -7.94,-16.51 0,-11.61 9.24,-20.94 20.73,-20.94 6.52,0 12.35,3.06 16.12,7.9 2.87,3.54 4.55,8.09 4.55,13.04z"/>
   <path fill="#BDBDBD" fill-rule="nonzero" d="M2889.92 507.92c0,11.53 -9.29,20.98 -20.67,20.98 -4.85,0 -9.24,-1.66 -12.79,-4.47 -2.72,-3.57 -4.39,-8.04 -4.39,-12.93 0,-11.62 9.3,-20.95 20.67,-20.95 4.75,0 9.19,1.6 12.63,4.33 2.87,3.54 4.55,8.09 4.55,13.04z"/>
  </g>
  <path class="star" fill="#C5C6C6" fill-rule="nonzero" d="M791.14 1180.77c-29.61,3.39 -32.34,6.13 -35.67,36.16 -3.37,-30.03 -6.05,-32.77 -35.71,-36.16 29.66,-3.39 32.34,-6.13 35.71,-36.16 3.33,30.03 6.06,32.77 35.67,36.16z"/>
  <path fill="#C5C6C6" d="M481.65 1782.89c5.37,0 9.71,4.45 9.71,9.94 0,5.49 -4.34,9.94 -9.71,9.94 -5.36,0 -9.7,-4.45 -9.7,-9.94 0,-5.49 4.34,-9.94 9.7,-9.94z"/>
 </g>
</svg>
