<svg xmlns="http://www.w3.org/2000/svg" viewBox="0 0 480 480"><style>.a{fill:#FF4F19;}.b{fill:#DB3F3D;}.c{fill:#A03939;}</style><path d="M24.7 346.2c-0.6-1.3-1.3-2.6-1.9-3.9C23.5 343.6 24.1 344.9 24.7 346.2z" class="a"/><path d="M22.3 341.2c-0.6-1.3-1.2-2.5-1.7-3.8C21.2 338.7 21.7 339.9 22.3 341.2z" class="a"/><path d="M20 336.1c-0.5-1.3-1.1-2.5-1.6-3.8C18.9 333.6 19.5 334.8 20 336.1z" class="a"/><path d="M17.9 331c-0.5-1.3-1-2.5-1.5-3.8C16.8 328.4 17.3 329.7 17.9 331z" class="a"/><path d="M303.6 8.5c38.6 10.6 73.2 30.6 101.4 57.3C395.5 64.7 385.8 64 376 64c-124.3 0-226.5 94.4-238.8 215.5h0c0 0 0 0.1 0 0.1 0 0 0 0 0 0C168.9 285.1 204.3 288 240 288c41.9 0 82.8-3.9 118.4-11.3 14-2.9 27.2-6.4 39.1-10.3 4.2-1.4 8.7 0.9 10.1 5.1 1.4 4.2-0.9 8.7-5.1 10.1 -7.8 2.6-16.1 4.9-24.7 7.1 -0.1 0.1-0.1 0.2-0.3 0.3l-15.7 11.7 16.3 4.5c3.5 1 5.9 4.2 5.9 7.8 0 3.6-2.5 6.8-6.1 7.7C337.6 330.7 289.9 336 240 336c-3.5 0-6.6-2.3-7.7-5.7s0.3-7 3.2-9c2.6-1.7 2.5-4.2 2.3-5.3 -0.2-1-0.8-3.5-3.8-4.3l-43.8-9.7c-0.1 0-0.1-0.1-0.2-0.1 -18.6-1.4-36.8-3.5-53.9-6.4 -0.1 2.8-0.2 5.6-0.2 8.3 0 54.2 18 104.2 48.3 144.3 18.6-8.5 37.7-17 56-16.3 28.8 1.3 43.5-6.9 43.7-7 3.8-2.1 8.7-0.8 10.9 3 2.2 3.8 0.9 8.7-2.9 10.9 -0.7 0.4-18.3 10.5-52.4 9.1 -13.4-0.7-29.3 6.1-44.9 13.2 0 0 0 0 0 0 0 0 0 0 0 0 5.1 5.9 10.6 11.6 16.3 17 -12.9-1.5-25.4-4.1-37.6-7.6 0 0 0 0 0 0 0 0-0.1 0-0.1 0 -2-0.6-4-1.2-6-1.8 -1.2-0.4-2.5-0.8-3.7-1.2 -0.5-0.2-0.9-0.3-1.4-0.5 -5.4-1.8-10.7-3.8-15.9-6 0.1 0 0.1 0 0.2 0 -49.5-20.9-90.5-58-116.4-104.6C71.1 430.2 149.7 480 240 480c132.5 0 240-107.5 240-240C480 129.5 405.3 36.4 303.6 8.5zM272 232c-0.3 0-0.7 0-1 0 -11.4 0-18.5 3.6-26.6 7.7 -8.6 4.4-18.2 9.3-32.9 9.3 -3.9 0-8.1-0.3-12.8-1.1 -4.4-0.7-7.3-4.9-6.6-9.2 0.7-4.4 4.8-7.4 9.2-6.6 17.2 2.9 25.8-1.5 35.8-6.6 8.9-4.6 18.7-9.9 35-9.5 4.4 0.1 7.9 3.7 7.9 8.1C279.9 228.5 276.4 232 272 232zM334.3 220.9c-7.2 9.1-24.7 10.8-29.9 11C304.3 232 304.1 232 304 232c-4.2 0-7.7-3.3-8-7.6 -0.2-4.4 3.1-8.2 7.5-8.4 7.7-0.4 16.5-2.8 18.2-5 2.7-3.5 7.8-4.1 11.2-1.3C336.4 212.4 337 217.5 334.3 220.9zM205.7 333.6c-1.5 1.5-3.6 2.4-5.7 2.4s-4.2-0.9-5.7-2.3c-1.4-1.5-2.3-3.6-2.3-5.7s0.9-4.2 2.3-5.7c3-3 8.3-3 11.4 0 1.5 1.5 2.3 3.6 2.3 5.7S207.2 332.2 205.7 333.6zM309.7 373.6c-1.5 1.5-3.6 2.4-5.7 2.4 -2.1 0-4.2-0.9-5.7-2.3 -1.4-1.5-2.3-3.6-2.3-5.7s0.9-4.2 2.3-5.7c3-3 8.3-3 11.4 0 1.5 1.5 2.3 3.6 2.3 5.7S311.2 372.2 309.7 373.6zM373.7 197.5c-1.5 1.5-3.6 2.4-5.7 2.4s-4.2-0.9-5.7-2.3c-1.4-1.5-2.3-3.6-2.3-5.7s0.9-4.2 2.3-5.7c3-3 8.3-3 11.4 0 1.5 1.5 2.3 3.6 2.3 5.7S375.2 196.1 373.7 197.5zM405.7 229.6c-1.5 1.5-3.6 2.4-5.7 2.4s-4.2-0.9-5.7-2.3c-1.4-1.5-2.3-3.6-2.3-5.7s0.9-4.2 2.3-5.7c3-3 8.3-3 11.4 0 1.5 1.5 2.3 3.6 2.3 5.7S407.2 228.2 405.7 229.6zM369.8 130.5c-0.6 0.1-1.2 0.2-1.8 0.2 -3.6 0-6.9-2.5-7.8-6.2 -1-4.3 1.7-8.6 6-9.6 24.8-5.7 46.3-12.7 64.4-20.7 3.3 4.3 6.5 8.8 9.5 13.3C420.5 116.6 396.9 124.3 369.8 130.5z" class="a"/><path d="M27.3 351.2c-0.7-1.3-1.4-2.7-2-4C25.9 348.5 26.6 349.9 27.3 351.2z" class="a"/><path d="M29.9 356.1c-0.8-1.4-1.5-2.8-2.3-4.2C28.4 353.3 29.2 354.7 29.9 356.1z" class="a"/><path d="M3 278c-0.1-0.9-0.3-1.8-0.4-2.7C2.7 276.2 2.9 277.1 3 278z" class="a"/><path d="M275.7 2.6c1.4 0.2 2.7 0.4 4.1 0.6C278.4 3.1 277 2.8 275.7 2.6z" class="a"/><path d="M281.4 3.6c1.4 0.3 2.9 0.5 4.3 0.8C284.3 4.1 282.8 3.8 281.4 3.6z" class="a"/><path d="M0.4 254.3c0-0.8-0.1-1.6-0.1-2.4C0.3 252.7 0.4 253.5 0.4 254.3z" class="a"/><path d="M0.1 248c0-0.7-0.1-1.3-0.1-2C0.1 246.6 0.1 247.3 0.1 248z" class="a"/><path d="M269.9 1.8c1.3 0.2 2.5 0.3 3.8 0.5C272.4 2.2 271.1 2 269.9 1.8z" class="a"/><path d="M246.1 0.1c0.8 0 1.5 0.1 2.3 0.1C247.6 0.1 246.8 0.1 246.1 0.1z" class="a"/><path d="M252.1 0.3c1 0 1.9 0.1 2.9 0.2C254 0.4 253.1 0.4 252.1 0.3z" class="a"/><path d="M287.1 4.6c1.5 0.3 3.1 0.6 4.6 1C290.1 5.3 288.6 4.9 287.1 4.6z" class="a"/><path d="M292.6 5.8c1.6 0.4 3.3 0.8 4.9 1.1C295.9 6.6 294.3 6.2 292.6 5.8z" class="a"/><path d="M298.1 7.1c1.7 0.4 3.5 0.9 5.2 1.4C301.6 8 299.9 7.5 298.1 7.1z" class="a"/><path d="M2.1 272.1c-0.1-0.9-0.2-1.8-0.3-2.7C1.9 270.4 2 271.3 2.1 272.1z" class="a"/><path d="M1.4 266.3c-0.1-0.9-0.2-1.7-0.3-2.6C1.2 264.5 1.3 265.4 1.4 266.3z" class="a"/><path d="M0.9 260.3c-0.1-0.8-0.1-1.7-0.2-2.5C0.7 258.7 0.8 259.5 0.9 260.3z" class="a"/><path d="M258.1 0.7c1.1 0.1 2.1 0.2 3.2 0.3C260.2 0.9 259.2 0.8 258.1 0.7z" class="a"/><path d="M7.7 300.6c-0.2-1-0.5-1.9-0.7-2.9C7.2 298.7 7.5 299.7 7.7 300.6z" class="a"/><path d="M15.9 325.9c-0.5-1.3-1-2.6-1.5-4C14.8 323.3 15.3 324.6 15.9 325.9z" class="a"/><path d="M9.2 306.2c-0.3-1-0.6-2-0.8-3C8.7 304.1 9 305.2 9.2 306.2z" class="a"/><path d="M6.3 295c-0.2-0.9-0.4-1.9-0.6-2.8C5.9 293.2 6.1 294.1 6.3 295z" class="a"/><path d="M14.1 321.2c-1.6-4.3-3-8.7-4.3-13.1C11.1 312.5 12.6 316.9 14.1 321.2z" class="a"/><path d="M5.1 289.4c-0.2-0.9-0.4-1.8-0.6-2.8C4.7 287.6 4.9 288.5 5.1 289.4z" class="a"/><path d="M4 283.7c-0.2-0.9-0.3-1.8-0.5-2.7C3.7 281.9 3.8 282.8 4 283.7z" class="a"/><path d="M264 1.2c1.2 0.1 2.3 0.3 3.5 0.4C266.3 1.4 265.2 1.3 264 1.2z" class="a"/><path d="M146.5 461c-0.1 0-0.1 0-0.2 0 5.2 2.2 10.5 4.2 15.9 6 0.5 0.2 0.9 0.3 1.4 0.5 1.2 0.4 2.5 0.8 3.7 1.2 2 0.6 4 1.2 6 1.8 0 0 0.1 0 0.1 0 0 0 0 0 0 0 12.2 3.5 24.7 6.1 37.6 7.6 -5.7-5.4-11.1-11.1-16.3-17 -1.5 0.7-2.9 1.3-4.4 2 -5.7 2.6-11.3 5.2-16.8 7.4 -0.8-0.2-1.5-0.4-2.3-0.7 -2.7-0.8-5.4-1.7-8-2.6 -1.7-0.6-3.4-1.1-5.1-1.7 -1.9-0.7-3.7-1.4-5.5-2.1 -2-0.8-4-1.6-6-2.4 9.3 0.2 23.4-6.1 37.2-12.4 0.2-0.1 0.4-0.2 0.7-0.3 3.3 4.4 6.7 8.7 10.3 12.9 15.7-7.1 31.5-13.9 44.9-13.2 34.1 1.5 51.6-8.6 52.4-9.1 3.8-2.2 5.1-7.1 2.9-10.9 -2.2-3.8-7.1-5.1-10.9-3 -0.1 0.1-14.9 8.2-43.7 7 -18.3-0.7-37.4 7.9-56 16.3C154 408.2 136 358.2 136 304c0-2.8 0.1-5.6 0.2-8.3 17.1 2.9 35.3 5 53.9 6.4 0.1 0 0.1 0.1 0.2 0.1l43.8 9.7c3 0.8 3.7 3.3 3.8 4.3 0.2 1 0.3 3.5-2.3 5.3 -2.9 2-4.2 5.6-3.2 9S236.5 336 240 336c49.9 0 97.6-5.3 137.9-15.4 3.5-0.9 6-4 6.1-7.7 0-3.6-2.4-6.8-5.9-7.8l-16.3-4.5 15.7-11.7c0.1-0.1 0.2-0.2 0.3-0.3 8.7-2.2 17-4.5 24.7-7.1 4.2-1.4 6.5-5.9 5.1-10.1 -1.4-4.2-5.9-6.5-10.1-5.1 -11.9 3.9-25.1 7.4-39.1 10.3C322.8 284.1 281.9 288 240 288c-35.7 0-71.1-2.9-102.8-8.4 0 0 0 0 0 0 -0.5 5.3-0.8 10.7-1 16 -3.3-0.5-6.5-1.1-9.7-1.7 -4.3-0.8-7.2-5-6.4-9.4 0.8-4.3 5-7.2 9.4-6.4 2.5 0.5 5.2 0.8 7.7 1.3C149.5 158.4 251.7 64 376 64c9.8 0 19.5 0.7 29 1.8C376.8 39.1 342.1 19.1 303.6 8.5c-0.1 0-0.2 0-0.2-0.1 -1.7-0.5-3.4-0.9-5.2-1.4 -0.2-0.1-0.4-0.1-0.6-0.2 -1.6-0.4-3.2-0.8-4.9-1.1 -0.3-0.1-0.7-0.1-1-0.2 -1.5-0.3-3.1-0.7-4.6-1 -0.4-0.1-0.9-0.2-1.3-0.3 -1.4-0.3-2.9-0.5-4.3-0.8 -0.6-0.1-1.1-0.2-1.7-0.3 -1.3-0.2-2.7-0.4-4-0.6 -0.7-0.1-1.3-0.2-2-0.3 -1.3-0.2-2.5-0.4-3.8-0.5 -0.8-0.1-1.6-0.2-2.4-0.3 -1.2-0.1-2.3-0.3-3.5-0.4 -0.9-0.1-1.8-0.2-2.7-0.2 -1.1-0.1-2.1-0.2-3.2-0.3 -1-0.1-2.1-0.1-3.1-0.2 -1-0.1-1.9-0.1-2.9-0.2 -1.2-0.1-2.5-0.1-3.7-0.1 -0.8 0-1.5-0.1-2.3-0.1C244.1 0 242 0 240 0 135 0 45.7 67.5 13.2 161.4c0.5-1.4 0.9-2.7 1.4-4 0.2 0.2 0.4 0.2 0.6 0.4 12.8 13.7 36.1 26.3 67.3 36.6 4.2 1.4 6.5 5.9 5.1 10.1 -1.1 3.4-4.2 5.5-7.6 5.5 -0.8 0-1.7-0.1-2.5-0.4 -29.8-9.8-53.2-21.9-68.3-35.3 1.2-4.3 2.5-8.5 3.9-12.7C4.6 186.1 0 212.5 0 240c0 2 0 4 0.1 6 0 0.7 0 1.3 0.1 2 0 1.3 0.1 2.6 0.2 3.9 0 0.8 0.1 1.6 0.1 2.4 0.1 1.2 0.1 2.4 0.2 3.5 0.1 0.8 0.1 1.7 0.2 2.5 0.1 1.1 0.2 2.2 0.3 3.3 0.1 0.9 0.2 1.7 0.3 2.6 0.1 1.1 0.2 2.1 0.4 3.2 0.1 0.9 0.2 1.8 0.3 2.7 0.1 1 0.3 2.1 0.4 3.1 0.1 0.9 0.3 1.8 0.4 2.7 0.2 1 0.3 2 0.5 3 0.2 0.9 0.3 1.8 0.5 2.7 0.2 1 0.4 2 0.6 2.9 0.2 0.9 0.4 1.8 0.6 2.8 0.2 0.9 0.4 1.9 0.6 2.8 0.2 0.9 0.4 1.9 0.6 2.8 0.2 0.9 0.4 1.8 0.7 2.7 0.2 1 0.5 1.9 0.7 2.9 0.2 0.8 0.4 1.7 0.7 2.5 0.3 1 0.5 2 0.8 3 0.2 0.6 0.4 1.3 0.6 1.9 1.3 4.4 2.7 8.8 4.3 13.1 0.1 0.2 0.2 0.5 0.3 0.7 0.5 1.3 1 2.6 1.5 4 0.2 0.4 0.3 0.8 0.5 1.3 0.5 1.3 1 2.5 1.5 3.8 0.2 0.4 0.4 0.9 0.5 1.3 0.5 1.3 1.1 2.5 1.6 3.8 0.2 0.4 0.4 0.9 0.6 1.3 0.6 1.3 1.1 2.5 1.7 3.8 0.2 0.4 0.4 0.8 0.5 1.2 0.6 1.3 1.2 2.6 1.9 3.9 0.2 0.3 0.3 0.7 0.5 1 0.7 1.3 1.4 2.7 2.1 4 0.1 0.2 0.3 0.5 0.4 0.7 0.7 1.4 1.5 2.8 2.3 4.2 0.1 0.1 0.1 0.2 0.2 0.4C56.1 403.1 97.1 440.1 146.5 461zM170.3 74.3c3-3 8.3-3 11.4 0 1.5 1.5 2.3 3.6 2.3 5.7s-0.8 4.2-2.3 5.6C180.2 87.1 178.1 88 176 88s-4.2-0.9-5.7-2.3C168.9 84.2 168 82.1 168 80S168.9 75.8 170.3 74.3zM104.8 106c6.2-9.7 17.3-13.8 24.7-9 7.5 4.7 8.5 16.5 2.3 26.2s-17.3 13.8-24.7 9S98.6 115.8 104.8 106zM55.6 274.8c-2-9.2 2.1-17.8 9.1-19.4 7-1.5 14.3 4.7 16.3 13.9s-2.1 17.8-9.1 19.4C64.9 290.2 57.6 284 55.6 274.8z" class="b"/><path d="M272.1 216c-16.3-0.5-26.1 4.9-35 9.5 -10 5.1-18.6 9.5-35.8 6.6 -4.4-0.8-8.5 2.2-9.2 6.6 -0.7 4.4 2.2 8.5 6.6 9.2 4.7 0.8 8.9 1.1 12.8 1.1 14.7 0 24.2-4.9 32.9-9.3 8.1-4.1 15.2-7.7 26.6-7.7 0.3 0 0.8 0 1 0 4.4 0 7.9-3.5 8-7.9C280.1 219.7 276.5 216.1 272.1 216z" class="b spot"/><path d="M332.9 209.7c-3.5-2.7-8.5-2.1-11.2 1.3 -1.7 2.1-10.5 4.5-18.2 5 -4.4 0.2-7.8 4-7.5 8.4 0.2 4.3 3.8 7.6 8 7.6 0.1 0 0.3 0 0.4 0 5.2-0.3 22.7-1.9 29.9-11C337 217.5 336.4 212.4 332.9 209.7z" class="b spot"/><path d="M176 88c2.1 0 4.2-0.9 5.7-2.4C183.2 84.2 184 82.1 184 80s-0.8-4.2-2.3-5.7c-3-3-8.4-3-11.4 0C168.9 75.8 168 77.9 168 80s0.9 4.2 2.3 5.7C171.8 87.1 173.9 88 176 88z" class="c spot"/><path d="M362.3 186.2c-1.4 1.5-2.3 3.6-2.3 5.7s0.9 4.2 2.3 5.7c1.5 1.4 3.6 2.3 5.7 2.3s4.2-0.9 5.7-2.4c1.5-1.4 2.3-3.5 2.3-5.6s-0.8-4.2-2.3-5.7C370.6 183.3 365.3 183.3 362.3 186.2z" class="b spot"/><path d="M394.3 218.3c-1.4 1.5-2.3 3.6-2.3 5.7s0.9 4.2 2.3 5.7c1.5 1.4 3.6 2.3 5.7 2.3s4.2-0.9 5.7-2.4c1.5-1.4 2.3-3.5 2.3-5.6s-0.8-4.2-2.3-5.7C402.6 215.4 397.3 215.4 394.3 218.3z" class="b spot"/><path d="M194.3 322.3c-1.4 1.5-2.3 3.6-2.3 5.7s0.9 4.2 2.3 5.7c1.5 1.4 3.6 2.3 5.7 2.3s4.2-0.9 5.7-2.4c1.5-1.4 2.3-3.5 2.3-5.6s-0.8-4.2-2.3-5.7C202.6 319.4 197.3 319.4 194.3 322.3z" class="b spot"/><path d="M298.3 362.3c-1.4 1.5-2.3 3.6-2.3 5.7s0.9 4.2 2.3 5.7c1.5 1.4 3.6 2.3 5.7 2.3 2.1 0 4.2-0.9 5.7-2.4 1.5-1.4 2.3-3.5 2.3-5.6s-0.8-4.2-2.3-5.7C306.6 359.4 301.3 359.4 298.3 362.3z" class="b spot"/><path d="M120.1 284.6c-0.8 4.3 2 8.5 6.4 9.4 3.2 0.6 6.5 1.1 9.7 1.7 0.2-5.4 0.5-10.7 1-16 0 0 0-0.1 0-0.1h0c-2.6-0.4-5.2-0.8-7.7-1.3C125.1 277.4 121 280.2 120.1 284.6z" class="c spot"/><path d="M77.5 209.5c0.8 0.3 1.7 0.4 2.5 0.4 3.4 0 6.5-2.1 7.6-5.5 1.4-4.2-0.9-8.7-5.1-10.1 -31.3-10.3-54.5-22.9-67.3-36.6 -0.2-0.2-0.4-0.2-0.6-0.4 -0.5 1.3-1 2.7-1.4 4 0 0 0 0.1 0 0.1 -1.4 4.2-2.7 8.4-3.9 12.7C24.4 187.6 47.8 199.8 77.5 209.5z" class="c spot"/><path d="M184.4 448.3c-0.2 0.1-0.4 0.2-0.7 0.3 -13.8 6.3-27.9 12.6-37.2 12.4 2 0.8 4 1.6 6 2.4 1.8 0.7 3.7 1.5 5.5 2.1 1.7 0.6 3.4 1.2 5.1 1.7 2.7 0.9 5.3 1.8 8 2.6 0.8 0.2 1.5 0.4 2.3 0.7 5.5-2.2 11.1-4.8 16.8-7.4 1.5-0.7 2.9-1.3 4.4-2 0 0 0 0 0 0 0 0 0 0 0 0C191.1 457 187.7 452.7 184.4 448.3z" class="c spot"/><path d="M430.6 94.2c-18.1 8-39.6 15-64.4 20.7 -4.3 1-7 5.3-6 9.6 0.8 3.7 4.1 6.2 7.8 6.2 0.6 0 1.2-0.1 1.8-0.2 27.1-6.2 50.7-14 70.3-23C437.1 103 433.9 98.6 430.6 94.2z" class="b spot"/><ellipse transform="matrix(-0.5369 0.8437 -0.8437 -0.5369 278.5632 76.3195)" style="fill:#A03939;" cx="118.334" cy="114.618" rx="20.897" ry="16"/><ellipse transform="matrix(0.9774 -0.2113 0.2113 0.9774 -55.9416 20.5831)" style="fill:#A03939;" cx="68.348" cy="272.069" rx="13.006" ry="16.987"/></svg>
 