<svg xmlns="http://www.w3.org/2000/svg" xml:space="preserve" version="1.1" shape-rendering="geometricPrecision" text-rendering="geometricPrecision"  fill-rule="evenodd" clip-rule="evenodd"
viewBox="0 0 3508 2480.4"
 xmlns:xlink="http://www.w3.org/1999/xlink">
 <defs>
   <radialGradient id="id0" gradientUnits="userSpaceOnUse" gradientTransform="matrix(1.02311E-16 -1.67086 -1.11565 -3.16038E-16 3315 4368)" cx="1802.72" cy="1355.49" r="1422.57" fx="1802.72" fy="1355.49">
    <stop offset="0" stop-opacity="1" stop-color="#364058"/>
    <stop offset="1" stop-opacity="1" stop-color="#30303B"/>
   </radialGradient>
   <mask id="id1">
     <linearGradient id="id2" gradientUnits="userSpaceOnUse" x1="1438.91" y1="1269.53" x2="1213.91" y2="1292.97">
      <stop offset="0" stop-opacity="0" stop-color="white"/>
      <stop offset="0.560784" stop-opacity="-127.502" stop-color="white"/>
      <stop offset="1" stop-opacity="1" stop-color="white"/>
     </linearGradient>
    <rect fill="url(#id2)" x="1243.79" y="951.62" width="284.38" height="708.49"/>
   </mask>
 </defs>
 <g id="Layer020">
  <path fill="url(#id0)" d="M2836.5 1752.69c56.02,-345.59 313.6,-509.05 270.06,-798.09 -43.54,-289.05 -486.06,-275.69 -591.83,-371.73 -250.79,-227.67 -442.3,-343.18 -775.95,-349.87 -421.09,-8.43 -533.79,347.1 -947.97,534.17 -300.16,134.8 -764.3,716.46 -376.93,1147.09 387.34,430.74 555.9,-114.56 1230.66,172.72 520.47,221.72 1094.86,264.42 1191.96,-334.29z"/>
  <path class="star" fill="#EBCC42" fill-rule="nonzero" d="M1016.59 1467.66c-29.58,3.34 -32.28,6.04 -35.62,35.62 -3.34,-29.58 -6.03,-32.28 -35.61,-35.62 29.58,-3.33 32.27,-6.04 35.61,-35.62 3.34,29.58 6.04,32.29 35.62,35.62z"/>
  <path class="star" fill="#EBCC42" fill-rule="nonzero" d="M891.41 365.31c-41.46,4.67 -45.25,8.46 -49.92,49.91 -4.68,-41.45 -8.47,-45.24 -49.92,-49.91 41.45,-4.68 45.24,-8.47 49.92,-49.92 4.67,41.45 8.46,45.24 49.92,49.92z"/>
  <path class="star" fill="#EBCC42" fill-rule="nonzero" d="M429.23 1229.03c-29.58,3.34 -32.28,6.04 -35.62,35.62 -3.34,-29.58 -6.04,-32.28 -35.62,-35.62 29.58,-3.33 32.28,-6.03 35.62,-35.62 3.34,29.59 6.04,32.29 35.62,35.62z"/>
  <path class="star" fill="#EBCC42" fill-rule="nonzero" d="M2393.91 1949.24c-29.59,3.34 -32.27,6.05 -35.64,35.62 -3.32,-29.57 -6.04,-32.28 -35.59,-35.62 29.55,-3.33 32.27,-6.04 35.59,-35.61 3.37,29.57 6.05,32.28 35.64,35.61z"/>
  <path class="star" fill="#EBCC42" fill-rule="nonzero" d="M3106 1695.99c-47.26,5.33 -51.61,9.66 -56.99,56.95 -5.31,-47.29 -9.65,-51.62 -56.84,-56.95 47.19,-5.33 51.53,-9.66 56.84,-56.96 5.38,47.3 9.73,51.63 56.99,56.96z"/>
  <circle fill="#E73D34" cx="1774.95" cy="1242.54" r="577.77"/>
  <path fill="#D93033" fill-rule="nonzero" d="M1946.02 982.03c0,0 -150.36,9.8 -268.02,109.48 -117.61,99.67 -321.86,116.01 -321.86,116.01 0,0 102.94,-29.41 125.81,-57.18 0,0 -154.85,67.36 -283.21,59.79 3.71,-66.55 18.92,-132.74 45.83,-195.36 48.63,-34.53 142.03,-88.52 262.15,-99.57 0,0 -32.92,16.18 -47.64,40.67 1.21,-0.6 79.48,-38.99 210.77,-49.67 132.37,-10.77 272.89,-78.18 303.91,-137.62 0,0 -1.59,38.6 -39.17,74.55 1.51,-0.44 99.96,-28.68 162.61,-79.27 18.77,12.67 37.02,26.6 54.62,41.77 31.16,26.86 58.77,56.32 82.71,87.8 -57.29,47.49 -174,120.35 -364.49,137.62 0,0 40,-6.54 75.98,-49.02z"/>
  <path fill="#D93033" fill-rule="nonzero" d="M1979.11 702.74c-40.55,33.03 -113.9,98.75 -204.16,134.19 -116.58,45.75 -246.83,32.23 -246.83,32.23l29.42 -8.71c-128.01,-1.72 -225.56,41.24 -261.04,59.47 12.61,-18.63 26.46,-36.73 41.52,-54.17 22.56,-26.34 46.98,-50.04 72.96,-71.15 10.53,-8.59 21.27,-16.75 32.27,-24.48 47.33,-9.38 105.97,-16.44 175.3,-16.44 79.52,0 156.4,-30.49 156.4,-30.49 -24.46,3.26 -49.66,-5.45 -49.66,-5.45 58.12,-10.01 107.56,-30.89 137.2,-45.56 39.52,6.02 78.61,16.19 116.62,30.56z"/>
  <path fill="#D93033" fill-rule="nonzero" d="M2102.9 1304.49c0,0 -161.84,107.83 -386.28,125.26 0,0 65.84,-35.93 75.2,-49 -28.3,13.55 -75.93,40.96 -169.34,57.17 -211.46,36.69 -299.17,39.96 -380.03,27.45 -11.25,-26.93 -20.41,-54.57 -27.42,-82.67 -6.16,-24.81 -10.71,-49.97 -13.54,-75.29 69.38,5.87 193.65,10.86 296.21,-14.77 151.35,-37.82 312.42,-135.87 312.42,-135.87 0,0 -2.03,37.04 -55.4,67.54 0,0 445.9,-70.08 538.41,-235.98 35.07,71.62 54.62,149.33 58.24,227.83l0.09 0.24c0.08,2.18 0.17,4.35 0.26,6.55 -40.69,38.02 -128.75,97.88 -295.25,122.29 0,0 57.34,-30.28 46.43,-40.75z"/>
  <path fill="#D93033" fill-rule="nonzero" d="M2348.48 1306.22c-9.28,85.57 -37.97,169.84 -86.38,245.67 -13.33,21.08 -28.26,41.43 -44.69,61.08 -64.51,32.41 -136.6,58.72 -192.95,68.42 0,0 60.45,-22.87 89.87,-52.28 -1.25,0.73 -80.85,47.81 -176.46,65.5 -96.43,17.83 -225.52,-3.42 -313.8,27.63 0,0 57.3,4.1 90,12.27 0,0 -44.31,0.73 -97.33,13.07 -23.73,5.54 -58.94,7.38 -102.21,10.07 -40.99,-20.73 -80.17,-46.75 -116.54,-78.11 -10.01,-8.6 -19.63,-17.52 -28.86,-26.65 -30.25,-29.88 -56.61,-62.42 -78.89,-96.9 41.95,-7.52 115.56,-15.91 191.41,-2.05 116.32,21.24 293.3,-58.83 293.3,-58.83 0,0 -22.99,29.42 -58.33,47.39 0,0 113.34,-13.62 219.57,-70.54 85.94,-46.05 293.68,-74.45 412.29,-165.74z"/>
  <path fill="#D93033" fill-rule="nonzero" d="M2048.88 1750.55c-123.61,66.6 -267.5,85.45 -403.06,54.38l-0.22 0.08c-1.29,-0.28 -2.63,-0.59 -3.92,-0.9 20.53,-11.79 78.3,-39.98 140.3,-25.2 60.41,14.39 184.06,-0.41 266.9,-28.36z"/>
  <path fill="#B72F33" fill-rule="nonzero" d="M1590.42 1033.77c0,73.23 -59.37,132.63 -132.63,132.63 -33.22,0 -63.51,-12.2 -86.85,-32.33l-0.04 -0.04c-28.01,-24.36 -45.74,-60.24 -45.74,-100.26 0,-73.27 59.37,-132.67 132.63,-132.67 40.04,0 75.98,17.76 100.36,45.83l0.13 0.12c20.02,23.27 32.14,53.6 32.14,86.72z"/>
  <path fill="#D23233" fill-rule="nonzero" d="M1590.42 1033.77c0,73.23 -59.37,132.63 -132.63,132.63 -33.22,0 -63.51,-12.2 -86.85,-32.33l-0.04 -0.04c-20.11,-23.31 -32.32,-53.64 -32.32,-86.85 0,-73.27 59.37,-132.62 132.63,-132.62 33.26,0 63.64,12.19 86.94,32.37l0.13 0.12c20.02,23.27 32.14,53.6 32.14,86.72z"/>
  <path fill="#B72F33" fill-rule="nonzero" d="M2053.8 865.22c0,47.08 -38.19,85.28 -85.3,85.28 -21.31,0 -40.81,-7.85 -55.83,-20.79l0 -0.03c-18.03,-15.66 -29.42,-38.73 -29.42,-64.46 0,-47.11 38.18,-85.3 85.25,-85.3 25.76,0 48.84,11.41 64.5,29.46l0.09 0.08c12.9,14.96 20.71,34.46 20.71,55.76z"/>
  <path fill="#D23233" fill-rule="nonzero" d="M2053.8 865.22c0,47.08 -38.19,85.28 -85.3,85.28 -21.31,0 -40.81,-7.85 -55.83,-20.79l0 -0.03c-12.94,-14.98 -20.79,-34.48 -20.79,-55.83 0,-47.12 38.18,-85.28 85.25,-85.28 21.44,0 40.94,7.84 55.87,20.81l0.09 0.08c12.9,14.96 20.71,34.46 20.71,55.76z"/>
  <path fill="#B72F33" fill-rule="nonzero" d="M2238.5 1210.74c0,75.52 -61.26,136.78 -136.85,136.78 -34.17,0 -65.46,-12.58 -89.49,-33.34l-0.04 -0.04c-28.95,-25.13 -47.24,-62.13 -47.24,-103.4 0,-75.56 61.26,-136.82 136.77,-136.82 41.33,0 78.39,18.3 103.5,47.26l0.13 0.12c20.67,24 33.22,55.28 33.22,89.44z"/>
  <path fill="#D23233" fill-rule="nonzero" d="M2238.5 1210.74c0,75.52 -61.26,136.78 -136.85,136.78 -34.17,0 -65.46,-12.58 -89.49,-33.34l-0.04 -0.04c-20.75,-24.05 -33.35,-55.32 -33.35,-89.57 0,-75.56 61.22,-136.78 136.77,-136.78 34.3,0 65.62,12.58 89.61,33.39l0.13 0.12c20.67,24 33.22,55.28 33.22,89.44z"/>
  <path fill="#B72F33" fill-rule="nonzero" d="M1502.23 1467.67c0,40.14 -32.58,72.7 -72.74,72.7 -18.21,0 -34.78,-6.69 -47.59,-17.72l-0.05 -0.03c-15.31,-13.34 -25.06,-33.01 -25.06,-54.95 0,-40.16 32.53,-72.72 72.7,-72.72 21.96,0 41.63,9.73 55.01,25.12l0.04 0.07c11,12.75 17.69,29.38 17.69,47.53z"/>
  <path fill="#D23233" fill-rule="nonzero" d="M1502.23 1467.67c0,40.14 -32.58,72.7 -72.74,72.7 -18.21,0 -34.78,-6.69 -47.59,-17.72l-0.05 -0.03c-11,-12.78 -17.68,-29.4 -17.68,-47.6 0,-40.16 32.53,-72.69 72.69,-72.69 18.21,0 34.91,6.68 47.64,17.74l0.04 0.07c11,12.75 17.69,29.38 17.69,47.53z"/>
  <path fill="#B72F33" fill-rule="nonzero" d="M1795.75 1042.37c0,21.08 -17.13,38.19 -38.19,38.19 -9.57,0 -18.29,-3.51 -25.02,-9.31l0 -0.01c-8.07,-7.02 -13.2,-17.35 -13.2,-28.87 0,-21.1 17.13,-38.2 38.22,-38.2 11.48,0 21.88,5.11 28.87,13.19l0.04 0.04c5.78,6.7 9.28,15.43 9.28,24.97z"/>
  <path fill="#D23233" fill-rule="nonzero" d="M1795.75 1042.37c0,21.08 -17.13,38.19 -38.19,38.19 -9.57,0 -18.29,-3.51 -25.02,-9.31l0 -0.01c-5.83,-6.71 -9.32,-15.45 -9.32,-25.01 0,-21.1 17.09,-38.19 38.23,-38.19 9.53,0 18.29,3.51 24.98,9.32l0.04 0.04c5.78,6.7 9.28,15.43 9.28,24.97z"/>
  <circle fill="#B72F33" cx="2181.1" cy="1478.63" r="61.75"/>
  <path fill="#D23233" fill-rule="nonzero" d="M2242.82 1478.63c0,34.09 -27.61,61.74 -61.74,61.74 -15.41,0 -29.56,-5.68 -40.39,-15.05l-0.04 -0.03c-9.36,-10.84 -15.06,-24.96 -15.06,-40.42 0,-34.1 27.66,-61.73 61.79,-61.73 15.44,0 29.55,5.68 40.38,15.07l0.09 0.06c9.36,10.83 14.97,24.94 14.97,40.36z"/>
  <circle fill="#B72F33" cx="1834.92" cy="1633.27" r="116.5"/>
  <path fill="#D23233" fill-rule="nonzero" d="M1951.46 1633.29c0,64.34 -52.21,116.52 -116.54,116.52 -29.16,0 -55.78,-10.72 -76.23,-28.41l-0.05 -0.04c-17.73,-20.47 -28.43,-47.12 -28.43,-76.29 0,-64.37 52.12,-116.51 116.53,-116.51 29.21,0 55.88,10.71 76.33,28.44l0.13 0.11c17.56,20.44 28.26,47.08 28.26,76.18z"/>
  <path id="glow" fill="#E14A55" mask="url(#id1)" d="M1312.16 1312.15l-1.21 0.01 -3.51 -0.01 3.54 0 1.18 0zm123.89 244.66c-0.09,-0.6 -0.18,-1.19 -0.26,-1.78 0.09,0.59 0.17,1.18 0.26,1.78zm-0.38 -2.69c-0.08,-0.6 -0.15,-1.19 -0.22,-1.78 0.07,0.59 0.14,1.18 0.22,1.78zm-0.32 -2.67c-0.07,-0.59 -0.13,-1.17 -0.18,-1.74 0.05,0.57 0.11,1.15 0.18,1.74zm-9.15 -4.06c-10.46,-0.61 -20.72,-0.88 -30.73,-0.88l-0.9 0 0.89 -0.02c10.01,0 20.28,0.28 30.74,0.9zm-91.64 2.39c21.1,30.81 46.49,61.62 76.92,92.13 12.12,12.16 27.95,18.17 43.72,18.17l0 0c2.79,0 5.63,-0.17 8.41,-0.55 14.79,-1.98 28.88,-9.36 39.2,-21.89l11.25 -13.62c15.78,-19.19 18.21,-45.31 7.72,-66.51l-0.04 0c-3,-6.21 -7.14,-11.9 -12.24,-16.73 -7.63,-7.62 -15.92,-16.27 -24.45,-26.14 -13.32,15.75 -33.3,25.79 -55.56,25.79 -18.19,0 -34.76,-6.75 -47.6,-17.83l0 0 0 0c-14.45,-12.63 -23.96,-30.8 -25.01,-51.05l-8.45 0.17 -0.48 0.01c2.93,-0.07 5.9,-0.16 8.92,-0.27 -0.05,-1.26 -0.1,-2.52 -0.1,-3.77 0,-8.32 1.38,-16.34 3.95,-23.78 8.41,-24.26 29.27,-42.68 54.87,-47.66 -9.69,-26.05 -17.45,-55.09 -21.94,-87.33 -10.15,0.85 -20.26,1.49 -30.29,1.98 10.03,-0.5 20.15,-1.17 30.31,-2.04 -4.55,-32.02 -5.85,-67.15 -2.76,-105.57 -4.54,0.65 -8.7,1.22 -12.45,1.7 3.73,-0.49 7.88,-1.07 12.39,-1.74 0.23,-2.3 0.4,-4.68 0.67,-7.06 -18.68,6.49 -33.2,10.68 -35.16,11.24l-0.21 0.01c0,0 15.27,-4.32 35.33,-11.25 0.4,-4.81 0.97,-9.45 1.53,-14.43l0.01 0c1.16,-9.75 2.66,-19.71 4.39,-29.9 -9.52,-4.84 -18.38,-10.86 -26.49,-17.78l-0.04 -0.07 0 0c-28,-24.33 -45.72,-60.25 -45.72,-100.27 0,-29.3 9.48,-56.45 25.65,-78.39 -1.56,0.66 -3.1,1.32 -4.64,1.99 1.52,-0.69 3.06,-1.37 4.61,-2.06 0.9,-1.21 1.79,-2.42 2.85,-3.63 -8.13,2.57 -15.61,6.66 -21.99,12.29l-0.23 0.11c-5.54,4.83 -10.28,10.64 -13.86,17.33 -24.94,46.41 -61.04,128.45 -71.05,228.42l2.08 -0.14 -2.09 0.21c-3.17,31.84 -3.74,65.59 -0.49,100.55l0.05 0c4.84,51.33 18.09,105.31 43.4,160.22 6.42,0.43 12.98,0.76 19.73,0.97 -6.75,-0.19 -13.31,-0.49 -19.72,-0.93 12.1,26.14 26.96,52.62 45.08,79.1l0.02 0zm150.56 4.77c-1.17,-0.19 -2.32,-0.39 -3.47,-0.6 -5.41,-0.98 -10.8,-1.86 -16.18,-2.63 5.37,0.77 10.77,1.63 16.17,2.61 1.15,0.22 2.31,0.43 3.48,0.62zm-178.96 -242.4c-21.3,-0.09 -41.5,-0.78 -59.95,-1.72l59.95 1.72z"/>
  <path id="Shadow" fill="#2B2A29" fill-rule="nonzero" fill-opacity="0.188235" d="M2350.25 1287.22c-0.52,6.34 -1.04,12.67 -1.77,19 -9.28,85.57 -37.97,169.84 -86.38,245.67 -13.33,21.08 -28.26,41.43 -44.69,61.08 -1.82,2.17 -3.63,4.32 -5.48,6.47 -35.21,40.78 -74.86,75.44 -117.66,103.86 -14.76,9.83 -29.9,18.91 -45.39,27.25 -123.61,66.6 -267.5,85.45 -403.06,54.38l-0.22 0.08 0.08 -0.03 0 -0.19c0.21,0 0.3,0 0.34,0.07 0.2,0.05 0.41,0.1 0.61,0.14 5.83,0.3 11.65,0.45 17.4,0.45 44.48,0 87.58,-8.69 128.18,-24.48 23.21,-9.02 45.69,-20.37 67.09,-33.72 23.44,-14.6 45.69,-31.6 66.51,-50.63 4.98,-4.55 9.88,-9.21 14.69,-13.99 0.01,-0.01 0.02,-0.02 0.03,-0.03 70.4,-69.79 122.63,-163.11 146.15,-263.3 5.56,-23.64 9.53,-47.64 11.73,-71.82 0.29,-3.19 0.56,-6.39 0.79,-9.59 0.55,-7.56 0.94,-15.14 1.14,-22.72 0.08,-3.05 0.14,-6.09 0.16,-9.13 0.47,-55.98 -8.71,-112.16 -29.21,-165.9 -4.9,-12.84 -10.45,-25.55 -16.67,-38.08 -2.72,-5.49 -5.57,-10.94 -8.55,-16.36 -0.64,-1.17 -1.29,-2.37 -1.98,-3.53 -14.84,-26.42 -30.59,-50.56 -47.11,-72.64 -17.31,-23.21 -35.43,-44.12 -54.07,-62.95 -14.62,-14.71 -29.51,-28.17 -44.69,-40.44 -0.01,-0.01 -0.02,-0.01 -0.02,-0.02 -2.5,-2.01 -5,-3.99 -7.49,-5.94 -16.96,-13.22 -34.17,-25.03 -51.47,-35.56 -19.16,-11.6 -38.49,-21.67 -57.69,-30.35 -90.82,-41.01 -180.73,-51.56 -249.29,-51.56 -71.41,0 -119.48,11.45 -121.25,11.86 10.52,-8.58 21.25,-16.73 32.24,-24.45 37.84,-26.57 78.27,-48.07 120.29,-64.5 62.91,-24.76 129.43,-38.1 196.27,-39.82 34.25,-0.92 68.64,1.2 102.68,6.38 39.52,6.02 78.61,16.19 116.62,30.56 40.95,15.48 80.6,35.83 118.09,61.12 18.77,12.67 37.02,26.6 54.62,41.77 31.16,26.86 58.77,56.32 82.71,87.8 22.83,29.98 42.37,61.79 58.6,94.9 35.07,71.62 54.62,149.33 58.24,227.83l0.09 0.24c0.08,2.18 0.17,4.35 0.26,6.55 0.73,21.43 0.21,42.85 -1.47,64.27zm-707.03 517.25l-1.54 -0.36c-5.72,-1.35 -11.42,-2.8 -17.1,-4.33 5.7,1.52 11.41,2.95 17.12,4.28 0.02,0.01 0.03,0.01 0.04,0.01 0.53,0.14 1.01,0.27 1.48,0.4z"/>
  <g class="asteroid">
   <path fill="#D0CECD" fill-rule="nonzero" d="M2602.26 1082.98c0.04,-12.16 -6.04,-23.47 -15.4,-31.22 -9.71,-8.02 -25.5,-18.9 -41.77,-21.05 -26.4,-3.48 -23.64,25.69 -48.62,29.86 -25.02,4.17 -42.28,32.67 -23.56,53.49 18.73,20.82 39.57,-7.65 72.18,6.23 26.28,11.2 57.09,-8.26 57.17,-37.31z"/>
   <path fill="#9EA0A0" fill-rule="nonzero" d="M2575.64 1067.81c0,6.87 -5.65,12.5 -12.51,12.5 -2.93,0 -5.57,-1 -7.72,-2.67 -2.89,-2.29 -4.79,-5.83 -4.79,-9.83 0,-6.92 5.61,-12.5 12.51,-12.5 3.97,0 7.46,1.83 9.75,4.71 1.73,2.12 2.76,4.83 2.76,7.79z"/>
   <path fill="#BDBDBD" fill-rule="nonzero" d="M2575.64 1067.81c0,6.87 -5.65,12.5 -12.51,12.5 -2.93,0 -5.57,-1 -7.72,-2.67 -1.64,-2.12 -2.64,-4.79 -2.64,-7.71 0,-6.92 5.61,-12.5 12.47,-12.5 2.89,0 5.57,0.96 7.64,2.59 1.73,2.12 2.76,4.83 2.76,7.79z"/>
   <path fill="#9EA0A0" fill-rule="nonzero" d="M2535.99 1078.28c0,4.54 -3.71,8.26 -8.24,8.26 -1.9,0 -3.67,-0.67 -5.09,-1.76 -1.9,-1.52 -3.15,-3.86 -3.15,-6.5 0,-4.57 3.71,-8.26 8.24,-8.26 2.63,0 4.92,1.21 6.47,3.11 1.12,1.41 1.77,3.2 1.77,5.15z"/>
   <path fill="#BDBDBD" fill-rule="nonzero" d="M2535.99 1078.28c0,4.54 -3.71,8.26 -8.24,8.26 -1.9,0 -3.67,-0.67 -5.09,-1.76 -1.08,-1.41 -1.73,-3.17 -1.73,-5.1 0,-4.57 3.71,-8.26 8.24,-8.26 1.9,0 3.67,0.64 5.05,1.71 1.12,1.41 1.77,3.2 1.77,5.15z"/>
   <path fill="#9EA0A0" fill-rule="nonzero" d="M2560.07 1095.47c0,4.54 -3.67,8.26 -8.25,8.26 -1.89,0 -3.66,-0.67 -5.09,-1.77 -1.89,-1.51 -3.15,-3.85 -3.15,-6.49 0,-4.57 3.71,-8.26 8.24,-8.26 2.64,0 4.97,1.21 6.48,3.11 1.12,1.4 1.77,3.19 1.77,5.15z"/>
   <path fill="#BDBDBD" fill-rule="nonzero" d="M2560.07 1095.47c0,4.54 -3.67,8.26 -8.25,8.26 -1.89,0 -3.66,-0.67 -5.09,-1.77 -1.07,-1.4 -1.72,-3.16 -1.72,-5.09 0,-4.57 3.71,-8.26 8.24,-8.26 1.94,0 3.67,0.64 5.05,1.71 1.12,1.4 1.77,3.19 1.77,5.15z"/>
  </g>
  <g class="asteroid">
   <path fill="#D0CECD" fill-rule="nonzero" d="M3009.81 510.81c0.04,-9.8 -4.87,-18.91 -12.42,-25.16 -7.77,-6.46 -20.54,-15.24 -33.66,-16.97 -21.27,-2.8 -19.07,20.71 -39.17,24.07 -20.15,3.36 -34.04,26.32 -18.99,43.1 15.06,16.78 31.84,-6.16 58.16,5.03 21.19,9.02 46,-6.66 46.08,-30.07z"/>
   <path fill="#9EA0A0" fill-rule="nonzero" d="M2988.37 498.58c0,5.54 -4.58,10.07 -10.1,10.07 -2.33,0 -4.48,-0.8 -6.21,-2.14 -2.33,-1.85 -3.88,-4.71 -3.88,-7.93 0,-5.57 4.53,-10.08 10.09,-10.08 3.2,0 6,1.48 7.86,3.8 1.38,1.71 2.24,3.89 2.24,6.28z"/>
   <path fill="#BDBDBD" fill-rule="nonzero" d="M2988.37 498.58c0,5.54 -4.58,10.07 -10.1,10.07 -2.33,0 -4.48,-0.8 -6.21,-2.14 -1.34,-1.72 -2.16,-3.87 -2.16,-6.22 0,-5.57 4.53,-10.07 10.06,-10.07 2.37,0 4.48,0.77 6.17,2.08 1.38,1.71 2.24,3.89 2.24,6.28z"/>
   <path fill="#9EA0A0" fill-rule="nonzero" d="M2956.44 507.02c0,3.66 -3.02,6.65 -6.69,6.65 -1.51,0 -2.93,-0.53 -4.05,-1.42 -1.6,-1.22 -2.59,-3.1 -2.59,-5.23 0,-3.69 2.98,-6.66 6.64,-6.66 2.16,0 3.97,0.98 5.22,2.51 0.91,1.13 1.47,2.57 1.47,4.15z"/>
   <path fill="#BDBDBD" fill-rule="nonzero" d="M2956.44 507.02c0,3.66 -3.02,6.65 -6.69,6.65 -1.51,0 -2.93,-0.53 -4.05,-1.42 -0.95,-1.13 -1.43,-2.55 -1.43,-4.1 0,-3.69 2.94,-6.65 6.61,-6.65 1.55,0 2.97,0.51 4.09,1.37 0.91,1.13 1.47,2.57 1.47,4.15z"/>
   <path fill="#9EA0A0" fill-rule="nonzero" d="M2975.86 520.87c0,3.66 -3.02,6.66 -6.69,6.66 -1.51,0 -2.94,-0.54 -4.06,-1.42 -1.59,-1.22 -2.59,-3.11 -2.59,-5.24 0,-3.68 2.98,-6.65 6.65,-6.65 2.16,0 3.97,0.97 5.22,2.5 0.91,1.13 1.47,2.57 1.47,4.15z"/>
   <path fill="#BDBDBD" fill-rule="nonzero" d="M2975.86 520.87c0,3.66 -3.02,6.66 -6.69,6.66 -1.51,0 -2.94,-0.54 -4.06,-1.42 -0.95,-1.13 -1.42,-2.56 -1.42,-4.11 0,-3.68 2.93,-6.65 6.6,-6.65 1.55,0 2.98,0.51 4.1,1.37 0.91,1.13 1.47,2.57 1.47,4.15z"/>
  </g>
  <g class="asteroid">
   <path fill="#D0CECD" fill-rule="nonzero" d="M1041.57 1699.33c-0.09,-12.31 -6.41,-23.7 -15.97,-31.45 -9.89,-8.01 -25.99,-18.86 -42.52,-20.86 -26.77,-3.22 -23.63,26.29 -48.91,30.78 -25.27,4.5 -42.42,33.56 -23.26,54.44 19.16,20.87 39.95,-8.19 73.16,5.51 26.75,11.04 57.73,-9 57.5,-38.42z"/>
   <path fill="#9EA0A0" fill-rule="nonzero" d="M1014.43 1684.25c0.07,6.97 -5.56,12.73 -12.53,12.81 -2.95,0.03 -5.66,-0.96 -7.83,-2.62 -2.98,-2.29 -4.92,-5.85 -4.97,-9.91 -0.07,-7 5.52,-12.72 12.53,-12.8 4,-0.04 7.57,1.78 9.92,4.67 1.76,2.13 2.84,4.86 2.88,7.85z"/>
   <path fill="#BDBDBD" fill-rule="nonzero" d="M1014.43 1684.25c0.07,6.97 -5.56,12.73 -12.53,12.81 -2.95,0.03 -5.66,-0.96 -7.83,-2.62 -1.71,-2.13 -2.76,-4.82 -2.79,-7.77 -0.08,-7.01 5.56,-12.73 12.52,-12.8 2.91,-0.04 5.62,0.9 7.75,2.53 1.76,2.13 2.84,4.86 2.88,7.85z"/>
   <path fill="#9EA0A0" fill-rule="nonzero" d="M974.43 1695.3c0.05,4.6 -3.68,8.4 -8.27,8.45 -1.96,0.03 -3.75,-0.62 -5.18,-1.72 -1.97,-1.51 -3.25,-3.87 -3.28,-6.55 -0.05,-4.62 3.64,-8.4 8.27,-8.45 2.65,-0.03 5.01,1.17 6.56,3.07 1.16,1.42 1.88,3.22 1.9,5.2z"/>
   <path fill="#BDBDBD" fill-rule="nonzero" d="M974.43 1695.3c0.05,4.6 -3.68,8.4 -8.27,8.45 -1.96,0.03 -3.75,-0.62 -5.18,-1.72 -1.13,-1.41 -1.82,-3.19 -1.85,-5.14 -0.04,-4.63 3.68,-8.4 8.28,-8.45 1.92,-0.03 3.71,0.59 5.12,1.66 1.16,1.42 1.88,3.22 1.9,5.2z"/>
   <path fill="#9EA0A0" fill-rule="nonzero" d="M999.01 1712.44c0.06,4.6 -3.67,8.41 -8.27,8.46 -1.95,0.02 -3.75,-0.63 -5.18,-1.73 -1.96,-1.51 -3.24,-3.87 -3.27,-6.55 -0.05,-4.62 3.64,-8.4 8.27,-8.45 2.65,-0.03 5,1.17 6.56,3.08 1.16,1.41 1.87,3.21 1.89,5.19z"/>
   <path fill="#BDBDBD" fill-rule="nonzero" d="M999.01 1712.44c0.06,4.6 -3.67,8.41 -8.27,8.46 -1.95,0.02 -3.75,-0.63 -5.18,-1.73 -1.13,-1.41 -1.82,-3.19 -1.84,-5.14 -0.04,-4.63 3.67,-8.4 8.28,-8.45 1.92,-0.03 3.71,0.59 5.12,1.67 1.16,1.41 1.87,3.21 1.89,5.19z"/>
  </g>
  <g class="asteroid">
   <path fill="#D0CECD" fill-rule="nonzero" d="M852.72 1185.77c0,0 -25.55,-0.33 -33.61,19.11 -8.06,19.45 16.94,24.31 33.61,23.61 16.67,-0.7 20.14,-17.66 29.17,-21.33 9.03,-3.67 3.47,-30.78 -29.17,-21.39z"/>
   <path fill="#9EA0A0" fill-rule="nonzero" d="M852.77 1208.22c0,4.55 -3.71,8.26 -8.25,8.26 -1.93,0 -3.69,-0.66 -5.09,-1.76 -1.92,-1.52 -3.16,-3.85 -3.16,-6.5 0,-4.56 3.68,-8.24 8.25,-8.24 2.61,0 4.93,1.2 6.44,3.1 1.13,1.4 1.81,3.19 1.81,5.14z"/>
   <path fill="#BDBDBD" fill-rule="nonzero" d="M852.77 1208.22c0,4.55 -3.71,8.26 -8.25,8.26 -1.93,0 -3.69,-0.66 -5.09,-1.76 -1.1,-1.41 -1.76,-3.16 -1.76,-5.09 0,-4.57 3.71,-8.25 8.26,-8.25 1.89,0 3.65,0.63 5.03,1.7 1.13,1.4 1.81,3.19 1.81,5.14z"/>
   <path fill="#9EA0A0" fill-rule="nonzero" d="M864.43 1197.13c0,2.34 -1.91,4.25 -4.24,4.25 -0.99,0 -1.89,-0.34 -2.62,-0.91 -0.99,-0.78 -1.63,-1.98 -1.63,-3.34 0,-2.34 1.9,-4.24 4.25,-4.24 1.34,0 2.52,0.62 3.3,1.6 0.58,0.72 0.94,1.64 0.94,2.64z"/>
   <path fill="#BDBDBD" fill-rule="nonzero" d="M864.43 1197.13c0,2.34 -1.91,4.25 -4.24,4.25 -0.99,0 -1.89,-0.34 -2.62,-0.91 -0.57,-0.72 -0.91,-1.62 -0.91,-2.61 0,-2.35 1.92,-4.25 4.25,-4.25 0.97,0 1.88,0.33 2.58,0.88 0.58,0.72 0.94,1.64 0.94,2.64z"/>
  </g>
  <g class="asteroid">
   <path fill="#D0CECD" fill-rule="nonzero" d="M596.16 1991.45c0,0 -25.55,-0.32 -33.61,19.12 -8.05,19.45 16.94,24.31 33.61,23.61 16.67,-0.69 20.14,-17.66 29.17,-21.33 9.03,-3.67 3.47,-30.79 -29.17,-21.4z"/>
   <path fill="#9EA0A0" fill-rule="nonzero" d="M596.21 2013.92c0,4.54 -3.71,8.25 -8.25,8.25 -1.92,0 -3.69,-0.66 -5.09,-1.76 -1.93,-1.51 -3.16,-3.85 -3.16,-6.49 0,-4.57 3.68,-8.26 8.25,-8.26 2.61,0 4.93,1.22 6.44,3.12 1.13,1.39 1.81,3.18 1.81,5.14z"/>
   <path fill="#BDBDBD" fill-rule="nonzero" d="M596.21 2013.92c0,4.54 -3.71,8.25 -8.25,8.25 -1.92,0 -3.69,-0.66 -5.09,-1.76 -1.1,-1.4 -1.76,-3.16 -1.76,-5.09 0,-4.57 3.72,-8.26 8.25,-8.26 1.9,0 3.66,0.64 5.04,1.72 1.13,1.39 1.81,3.18 1.81,5.14z"/>
   <path fill="#9EA0A0" fill-rule="nonzero" d="M607.87 2002.83c0,2.33 -1.91,4.23 -4.24,4.23 -0.99,0 -1.89,-0.33 -2.62,-0.9 -0.99,-0.77 -1.63,-1.98 -1.63,-3.33 0,-2.35 1.9,-4.25 4.25,-4.25 1.34,0 2.53,0.63 3.31,1.6 0.58,0.72 0.93,1.64 0.93,2.65z"/>
   <path fill="#BDBDBD" fill-rule="nonzero" d="M607.87 2002.83c0,2.33 -1.91,4.23 -4.24,4.23 -0.99,0 -1.89,-0.33 -2.62,-0.9 -0.56,-0.72 -0.9,-1.63 -0.9,-2.61 0,-2.35 1.91,-4.25 4.24,-4.25 0.97,0 1.88,0.33 2.59,0.88 0.58,0.72 0.93,1.64 0.93,2.65z"/>
  </g>
  <g class="asteroid">
   <path fill="#D0CECD" fill-rule="nonzero" d="M1281.23 1964.32c0,0 -19.81,-0.41 -26.13,14.61 -6.38,15.03 12.98,18.94 25.9,18.5 12.93,-0.44 15.71,-13.57 22.73,-16.36 7,-2.79 2.89,-23.85 -22.5,-16.75z"/>
   <path fill="#9EA0A0" fill-rule="nonzero" d="M1280.31 1979.94c0,4.23 -3.48,7.68 -7.71,7.68 -1.8,0 -3.42,-0.61 -4.75,-1.64 -1.8,-1.41 -2.9,-3.58 -2.9,-6.04 0,-4.26 3.42,-7.7 7.65,-7.7 2.43,0 4.58,1.13 6.03,2.9 1.04,1.31 1.68,2.98 1.68,4.8z"/>
   <path fill="#BDBDBD" fill-rule="nonzero" d="M1280.31 1979.94c0,4.23 -3.48,7.68 -7.71,7.68 -1.8,0 -3.42,-0.61 -4.75,-1.64 -0.99,-1.3 -1.63,-2.94 -1.63,-4.73 0,-4.26 3.48,-7.7 7.71,-7.7 1.74,0 3.42,0.59 4.7,1.59 1.04,1.31 1.68,2.98 1.68,4.8z"/>
  </g>
  <g class="asteroid">
   <path fill="#D0CECD" fill-rule="nonzero" d="M614.47 616.38c0,0 -22.06,35.08 -1.98,62.68 20.1,27.6 47.97,-2.88 61.11,-26.53 13.14,-23.64 -7.39,-42.82 -4.86,-58.4 2.57,-15.61 -39.64,-30.85 -54.27,22.25z"/>
   <path fill="#9EA0A0" fill-rule="nonzero" d="M649.64 659.19c0,7.94 -6.49,14.41 -14.41,14.41 -3.38,0 -6.45,-1.14 -8.91,-3.07 -3.35,-2.65 -5.51,-6.73 -5.51,-11.34 0,-7.99 6.44,-14.43 14.42,-14.43 4.57,0 8.61,2.12 11.25,5.44 1.97,2.45 3.16,5.57 3.16,8.99z"/>
   <path fill="#BDBDBD" fill-rule="nonzero" d="M649.64 659.19c0,7.94 -6.49,14.41 -14.41,14.41 -3.38,0 -6.45,-1.14 -8.91,-3.07 -1.92,-2.45 -3.06,-5.54 -3.06,-8.89 0,-7.98 6.51,-14.42 14.42,-14.42 3.31,0 6.39,1.11 8.8,2.98 1.97,2.45 3.16,5.57 3.16,8.99z"/>
   <path fill="#9EA0A0" fill-rule="nonzero" d="M649.64 615.24c0,5.15 -4.2,9.37 -9.35,9.37 -2.2,0 -4.18,-0.74 -5.79,-2 -2.17,-1.72 -3.59,-4.37 -3.59,-7.37 0,-5.19 4.18,-9.36 9.38,-9.36 2.95,0 5.59,1.37 7.29,3.53 1.3,1.58 2.06,3.62 2.06,5.83z"/>
   <path fill="#BDBDBD" fill-rule="nonzero" d="M649.64 615.24c0,5.15 -4.2,9.37 -9.35,9.37 -2.2,0 -4.18,-0.74 -5.79,-2 -1.23,-1.6 -1.99,-3.59 -1.99,-5.78 0,-5.18 4.21,-9.35 9.36,-9.35 2.15,0 4.15,0.71 5.71,1.93 1.3,1.58 2.06,3.62 2.06,5.83z"/>
  </g>
  <g class="asteroid">
   <path fill="#D0CECD" fill-rule="nonzero" d="M3050.63 1262.83c0,0 20.53,15.97 39.02,5.2 18.4,-10.8 1.17,-30.09 -12.75,-39.77 -13.84,-9.68 -27.06,1.92 -36.65,-0.66 -9.6,-2.57 -21.72,22.78 10.38,35.23z"/>
   <path fill="#9EA0A0" fill-rule="nonzero" d="M3079.58 1243.61c4.95,0.5 8.57,4.95 8.02,9.89 -0.16,2.1 -1.1,3.94 -2.44,5.35 -1.89,1.94 -4.48,3.02 -7.39,2.73 -5.04,-0.5 -8.58,-4.92 -8.11,-9.89 0.24,-2.85 1.89,-5.23 4.1,-6.67 1.65,-1.08 3.69,-1.63 5.82,-1.41z"/>
   <path fill="#BDBDBD" fill-rule="nonzero" d="M3079.58 1243.61c4.95,0.5 8.57,4.95 8.02,9.89 -0.16,2.1 -1.1,3.94 -2.44,5.35 -1.65,1.05 -3.62,1.57 -5.74,1.36 -4.96,-0.5 -8.58,-4.95 -8.02,-9.89 0.15,-2.07 1.02,-3.91 2.36,-5.3 1.65,-1.08 3.69,-1.63 5.82,-1.41z"/>
   <path fill="#9EA0A0" fill-rule="nonzero" d="M3052.12 1240.84c3.23,0.33 5.67,3.22 5.27,6.43 -0.15,1.36 -0.7,2.56 -1.57,3.47 -1.26,1.25 -2.99,1.96 -4.8,1.77 -3.22,-0.33 -5.58,-3.19 -5.27,-6.42 0.16,-1.85 1.26,-3.39 2.68,-4.33 1.1,-0.69 2.36,-1.06 3.69,-0.92z"/>
   <path fill="#BDBDBD" fill-rule="nonzero" d="M3052.12 1240.84c3.23,0.33 5.67,3.22 5.27,6.43 -0.15,1.36 -0.7,2.56 -1.57,3.47 -1.1,0.68 -2.36,1.02 -3.7,0.88 -3.22,-0.33 -5.58,-3.21 -5.27,-6.42 0.16,-1.34 0.71,-2.55 1.58,-3.44 1.1,-0.69 2.36,-1.06 3.69,-0.92z"/>
  </g>
  <g class="asteroid">
   <path fill="#D0CECD" fill-rule="nonzero" d="M2852.9 2025.97c0,0 31.94,24.94 60.93,8.11 28.74,-16.85 1.84,-46.98 -19.9,-62.09 -21.74,-15.12 -42.38,2.99 -57.37,-1.05 -14.86,-4.01 -33.9,35.58 16.34,55.03z"/>
   <path fill="#9EA0A0" fill-rule="nonzero" d="M2897.98 1995.95c7.74,0.79 13.39,7.74 12.78,15.46 -0.37,3.28 -1.85,6.15 -3.93,8.36 -2.95,3.01 -7.13,4.7 -11.67,4.25 -7.74,-0.78 -13.39,-7.69 -12.53,-15.46 0.49,-4.43 2.95,-8.16 6.39,-10.42 2.57,-1.66 5.65,-2.52 8.96,-2.19z"/>
   <path fill="#BDBDBD" fill-rule="nonzero" d="M2897.98 1995.95c7.74,0.79 13.39,7.74 12.78,15.46 -0.37,3.28 -1.85,6.15 -3.93,8.36 -2.7,1.61 -5.78,2.44 -8.97,2.1 -7.74,-0.78 -13.39,-7.73 -12.65,-15.44 0.37,-3.24 1.72,-6.13 3.81,-8.29 2.57,-1.66 5.65,-2.52 8.96,-2.19z"/>
   <path fill="#9EA0A0" fill-rule="nonzero" d="M2855.36 1991.63c4.91,0.51 8.6,5.02 8.1,10.03 -0.24,2.14 -1.1,3.99 -2.45,5.43 -1.97,1.95 -4.67,3.06 -7.62,2.76 -4.91,-0.5 -8.6,-4.97 -8.23,-10.03 0.37,-2.88 1.96,-5.29 4.18,-6.75 1.72,-1.1 3.8,-1.66 6.02,-1.44z"/>
   <path fill="#BDBDBD" fill-rule="nonzero" d="M2855.36 1991.63c4.91,0.51 8.6,5.02 8.1,10.03 -0.24,2.14 -1.1,3.99 -2.45,5.43 -1.72,1.06 -3.69,1.59 -5.78,1.38 -5.16,-0.51 -8.84,-5.02 -8.23,-10.04 0.12,-2.1 1.11,-3.97 2.34,-5.36 1.72,-1.1 3.8,-1.66 6.02,-1.44z"/>
  </g>
  <g class="asteroid">
   <path fill="#D0CECD" fill-rule="nonzero" d="M2521.97 1729.4c0,0 -25.54,-0.34 -33.61,19.11 -8.07,19.45 16.91,24.31 33.61,23.61 16.65,-0.69 20.15,-17.66 29.16,-21.33 9.02,-3.67 3.5,-30.79 -29.16,-21.39z"/>
   <path fill="#9EA0A0" fill-rule="nonzero" d="M2521.88 1752.74c0,5.09 -4.18,9.25 -9.27,9.25 -2.12,0 -4.1,-0.74 -5.66,-1.98 -2.15,-1.69 -3.53,-4.31 -3.53,-7.27 0,-5.11 4.14,-9.24 9.19,-9.24 2.97,0 5.56,1.35 7.24,3.47 1.26,1.58 2.03,3.59 2.03,5.77z"/>
   <path fill="#BDBDBD" fill-rule="nonzero" d="M2521.88 1752.74c0,5.09 -4.18,9.25 -9.27,9.25 -2.12,0 -4.1,-0.74 -5.66,-1.98 -1.25,-1.57 -1.98,-3.54 -1.98,-5.7 0,-5.11 4.14,-9.24 9.23,-9.24 2.12,0 4.14,0.71 5.65,1.9 1.26,1.58 2.03,3.59 2.03,5.77z"/>
  </g>
  <g class="asteroid">
   <path fill="#D0CECD" fill-rule="nonzero" d="M2057.45 1955.18c0,0 -17.4,1.54 -21.53,15.3 -4.12,13.77 13.17,15.36 24.49,13.75 11.27,-1.62 12.44,-13.4 18.36,-16.51 5.87,-3.11 0.21,-21.16 -21.32,-12.54z"/>
   <path fill="#9EA0A0" fill-rule="nonzero" d="M2060.47 1970.28c0,3.27 -2.7,5.95 -5.98,5.95 -1.38,0 -2.64,-0.48 -3.7,-1.27 -1.38,-1.09 -2.22,-2.78 -2.22,-4.68 0,-3.29 2.64,-5.95 5.92,-5.95 1.9,0 3.54,0.88 4.66,2.24 0.79,1.01 1.32,2.3 1.32,3.71z"/>
   <path fill="#BDBDBD" fill-rule="nonzero" d="M2060.47 1970.28c0,3.27 -2.7,5.95 -5.98,5.95 -1.38,0 -2.64,-0.48 -3.7,-1.27 -0.74,-1.01 -1.22,-2.28 -1.22,-3.67 0,-3.29 2.65,-5.95 5.93,-5.95 1.37,0 2.64,0.46 3.65,1.23 0.79,1.01 1.32,2.3 1.32,3.71z"/>
  </g>
  <g class="asteroid">
   <path fill="#D0CECD" fill-rule="nonzero" d="M2370.14 735.48c0,0 -14.24,1.25 -17.6,12.48 -3.37,11.23 10.74,12.53 19.97,11.21 9.19,-1.31 10.14,-10.92 14.93,-13.45 4.83,-2.54 0.22,-17.27 -17.3,-10.24z"/>
   <path fill="#9EA0A0" fill-rule="nonzero" d="M2370.61 748.15c0,3.1 -2.5,5.63 -5.6,5.63 -1.3,0 -2.51,-0.45 -3.46,-1.2 -1.33,-1.04 -2.2,-2.63 -2.2,-4.43 0,-3.13 2.51,-5.64 5.66,-5.64 1.76,0 3.36,0.82 4.4,2.12 0.77,0.96 1.2,2.18 1.2,3.52z"/>
   <path fill="#BDBDBD" fill-rule="nonzero" d="M2370.61 748.15c0,3.1 -2.5,5.63 -5.6,5.63 -1.3,0 -2.51,-0.45 -3.46,-1.2 -0.77,-0.96 -1.2,-2.16 -1.2,-3.48 0,-3.12 2.5,-5.63 5.6,-5.63 1.3,0 2.51,0.43 3.46,1.16 0.77,0.96 1.2,2.18 1.2,3.52z"/>
   <path fill="#9EA0A0" fill-rule="nonzero" d="M2380.93 741.72c0,1.88 -1.56,3.42 -3.46,3.42 -0.82,0 -1.51,-0.27 -2.11,-0.73 -0.78,-0.62 -1.29,-1.59 -1.29,-2.69 0,-1.89 1.51,-3.42 3.4,-3.42 1.13,0 2.03,0.5 2.68,1.29 0.47,0.58 0.78,1.32 0.78,2.13z"/>
   <path fill="#BDBDBD" fill-rule="nonzero" d="M2380.93 741.72c0,1.88 -1.56,3.42 -3.46,3.42 -0.82,0 -1.51,-0.27 -2.11,-0.73 -0.43,-0.58 -0.73,-1.3 -0.73,-2.11 0,-1.89 1.55,-3.42 3.45,-3.42 0.73,0 1.51,0.27 2.07,0.71 0.47,0.58 0.78,1.32 0.78,2.13z"/>
  </g>
  <g class="asteroid">
   <path fill="#D0CECD" fill-rule="nonzero" d="M3007.08 767.62c0,0 -24.31,2.14 -30.17,21.44 -5.78,19.3 18.46,21.53 34.33,19.26 15.79,-2.26 17.49,-18.75 25.72,-23.12 8.23,-4.36 0.3,-29.66 -29.88,-17.58z"/>
   <path fill="#9EA0A0" fill-rule="nonzero" d="M3007.98 789.38c0,5.33 -4.3,9.69 -9.64,9.69 -2.3,0 -4.3,-0.78 -5.93,-2.07 -2.3,-1.77 -3.71,-4.52 -3.71,-7.62 0,-5.36 4.3,-9.69 9.64,-9.69 3.11,0 5.78,1.42 7.56,3.65 1.34,1.65 2.08,3.75 2.08,6.04z"/>
   <path fill="#BDBDBD" fill-rule="nonzero" d="M3007.98 789.38c0,5.33 -4.3,9.69 -9.64,9.69 -2.3,0 -4.3,-0.78 -5.93,-2.07 -1.26,-1.65 -2.08,-3.72 -2.08,-5.97 0,-5.36 4.38,-9.69 9.64,-9.69 2.22,0 4.3,0.74 5.93,2 1.34,1.65 2.08,3.75 2.08,6.04z"/>
   <path fill="#9EA0A0" fill-rule="nonzero" d="M3025.62 778.34c0,3.23 -2.59,5.88 -5.86,5.88 -1.4,0 -2.59,-0.47 -3.56,-1.26 -1.4,-1.08 -2.29,-2.75 -2.29,-4.62 0,-3.25 2.59,-5.87 5.85,-5.87 1.86,0 3.49,0.85 4.6,2.21 0.81,1 1.26,2.27 1.26,3.66z"/>
   <path fill="#BDBDBD" fill-rule="nonzero" d="M3025.62 778.34c0,3.23 -2.59,5.88 -5.86,5.88 -1.4,0 -2.59,-0.47 -3.56,-1.26 -0.81,-1 -1.33,-2.25 -1.33,-3.62 0,-3.26 2.67,-5.87 5.86,-5.87 1.41,0 2.67,0.44 3.63,1.21 0.81,1 1.26,2.27 1.26,3.66z"/>
  </g>
  <g class="asteroid">
   <path fill="#D0CECD" fill-rule="nonzero" d="M463.47 989.61c0,0 -31.67,2.77 -39.22,27.85 -7.54,25.06 24.01,27.97 44.55,25.03 20.54,-2.96 22.73,-24.39 33.44,-30.05 10.71,-5.67 0.45,-38.53 -38.77,-22.83z"/>
   <path fill="#9EA0A0" fill-rule="nonzero" d="M464.67 1017.86c0,6.93 -5.68,12.59 -12.59,12.59 -2.94,0 -5.63,-1 -7.77,-2.69 -2.92,-2.31 -4.81,-5.87 -4.81,-9.9 0,-6.96 5.62,-12.58 12.58,-12.58 3.99,0 7.51,1.84 9.82,4.73 1.72,2.14 2.77,4.88 2.77,7.85z"/>
   <path fill="#BDBDBD" fill-rule="nonzero" d="M464.67 1017.86c0,6.93 -5.68,12.59 -12.59,12.59 -2.94,0 -5.63,-1 -7.77,-2.69 -1.67,-2.14 -2.68,-4.81 -2.68,-7.76 0,-6.96 5.67,-12.58 12.6,-12.58 2.87,0 5.56,0.97 7.67,2.59 1.72,2.14 2.77,4.88 2.77,7.85z"/>
   <path fill="#9EA0A0" fill-rule="nonzero" d="M487.56 1003.52c0,4.19 -3.43,7.64 -7.64,7.64 -1.77,0 -3.4,-0.62 -4.7,-1.63 -1.78,-1.4 -2.93,-3.56 -2.93,-6.01 0,-4.22 3.41,-7.62 7.63,-7.62 2.42,0 4.56,1.11 5.95,2.87 1.05,1.3 1.69,2.95 1.69,4.75z"/>
   <path fill="#BDBDBD" fill-rule="nonzero" d="M487.56 1003.52c0,4.19 -3.43,7.64 -7.64,7.64 -1.77,0 -3.4,-0.62 -4.7,-1.63 -1.02,-1.3 -1.63,-2.93 -1.63,-4.71 0,-4.22 3.44,-7.63 7.64,-7.63 1.75,0 3.37,0.58 4.64,1.58 1.05,1.3 1.69,2.95 1.69,4.75z"/>
  </g>
  <path id="aura-2" fill="#374257" d="M1776.68 1935.82c-92.09,0 -181.46,-17.9 -265.77,-53.69 -81.21,-34.23 -154.26,-83.64 -216.81,-146.28 -62.56,-62.63 -111.91,-135.77 -146.49,-217.08 -29.92,-71.2 -53.62,-189.08 -53.62,-265.72 0,-92.2 18.26,-181.68 53.62,-265.71 34.58,-81.31 83.93,-154.45 146.49,-217.09 8.15,-8.17 16.31,-15.95 24.86,-23.73 31.86,-30.73 71.5,-56.8 80.04,-62.25 35.36,-23.34 72.66,-43.57 111.91,-60.3 84.31,-35.4 173.68,-53.69 265.77,-53.69 92.47,0 181.84,18.29 266.15,53.69 81.21,34.63 154.26,83.65 216.82,146.28 62.55,62.64 111.9,135.78 146.48,217.09 35.36,84.03 53.62,173.51 53.62,265.71 0,92.2 -18.26,181.68 -53.62,265.72 -34.58,81.31 -83.93,154.45 -146.48,217.08 -62.56,62.64 -135.61,112.05 -216.82,146.28 -84.31,35.79 -173.68,53.69 -266.15,53.69zm0 -1316.52c-349.7,0 -633.73,283.61 -633.73,633.75 0,350.14 284.03,633.75 633.73,633.75 350.08,0 634.11,-283.61 634.11,-633.75 0,-350.14 -284.03,-633.75 -634.11,-633.75z"/>
  <path id="aura-1" fill="#3B495D" d="M1776.82 1886.8c-350.08,0 -633.68,-283.61 -633.68,-633.69 0,-350.08 283.6,-633.68 633.68,-633.68 350.08,0 633.69,283.6 633.69,633.68 0,350.08 -283.61,633.69 -633.69,633.69zm-131.14 -82.01c42.63,9.75 85.98,14.81 129.34,14.81 125.36,0 250,-40.83 352.97,-120.31 29.98,-23.48 58.16,-49.85 83.81,-79.84 1.81,-2.17 3.62,-4.33 5.78,-6.5l0 0c15.9,-19.15 30.71,-39.02 43.72,-59.61 0.72,-1.45 1.45,-2.53 2.53,-3.98 45.52,-72.25 73.34,-151.74 83.45,-233.02 2.17,-15.9 3.26,-31.8 3.98,-47.69 0.72,-15.18 1.08,-30.35 0.36,-45.52 0,-2.53 0,-4.7 0,-6.87l-0.36 0c-2.53,-56.72 -13.37,-113.08 -32.52,-166.91 0,0 0,-0.36 0,-0.36 0,0 -0.36,-0.36 -0.36,-0.36 0,-0.36 0,-0.36 0,-0.73 0,0 -0.36,0 -0.36,-0.36 0,0 0,-0.36 0,-0.72 0,0 0,0 0,0 -7.22,-19.87 -15.53,-39.38 -24.93,-58.53 -16.26,-33.24 -35.77,-65.03 -58.53,-95.01 -14.09,-18.07 -29.26,-35.77 -45.52,-52.75 -0.36,0 -0.36,0 -0.36,0 0,-0.36 0,-0.36 -0.36,-0.36 -11.56,-11.92 -23.84,-23.49 -36.49,-34.68 -109.11,-93.94 -243.14,-140.18 -376.81,-140.18 -104.77,0 -209.55,28.9 -301.31,84.9 -10.48,6.14 -20.59,13.01 -30.35,19.87 -9.03,6.14 -17.34,12.64 -26.01,19.51 -2.17,1.44 -4.34,3.25 -6.5,5.06 0,0 0,0 0,0 0,0 0,0 0,0 -26.02,20.95 -50.22,44.8 -72.98,71.17 -14.82,17.34 -28.91,35.4 -41.55,54.19 -20.23,30.35 -37.57,62.14 -51.66,94.66 -27.1,62.86 -42.27,128.97 -45.89,195.45 -1.8,32.51 -1.08,65.03 2.89,97.18l0 0 0 0c2.53,25.29 7.23,50.58 13.37,75.51 6.87,27.82 16.26,55.64 27.46,82.73l0 0c13,31.07 28.9,61.42 47.69,90.33l0 0 0 0c22.4,34.68 48.77,67.19 79.12,97.18 9.03,9.03 18.78,18.06 28.54,26.37 36.49,31.43 75.87,57.45 116.69,78.4l0 0c40.83,20.59 83.82,36.13 127.17,46.24l0 0 0 0c1.45,0.37 2.53,0.73 3.98,1.09l0 -0.36c0.36,0 0.36,0 0.36,0.36 0,0 0,-0.36 -0.36,-0.36l0 0z"/>
  <path class="star" fill="#C5C6C6" fill-rule="nonzero" d="M2895.97 1253.09c-13.4,1.51 -14.63,2.74 -16.14,16.15 -1.52,-13.41 -2.73,-14.64 -16.15,-16.15 13.42,-1.51 14.63,-2.74 16.15,-16.15 1.51,13.41 2.74,14.64 16.14,16.15z"/>
  <path class="star" fill="#C5C6C6" fill-rule="nonzero" d="M2661.01 732.59c-13.39,1.51 -14.63,2.74 -16.13,16.15 -1.53,-13.41 -2.74,-14.64 -16.16,-16.15 13.42,-1.51 14.63,-2.74 16.16,-16.15 1.5,13.41 2.74,14.64 16.13,16.15z"/>
  <path class="star" fill="#EBCC42" fill-rule="nonzero" d="M2691.46 326.09c-39.99,4.51 -43.67,8.17 -48.16,48.19 -4.56,-40.02 -8.18,-43.68 -48.23,-48.19 40.05,-4.52 43.67,-8.18 48.23,-48.2 4.49,40.02 8.17,43.68 48.16,48.2z"/>
  <path class="star" fill="#C5C6C6" fill-rule="nonzero" d="M1077.98 1732.61c-13.39,1.51 -14.63,2.74 -16.13,16.15 -1.53,-13.41 -2.74,-14.64 -16.16,-16.15 13.42,-1.51 14.63,-2.74 16.16,-16.15 1.5,13.41 2.74,14.64 16.13,16.15z"/>
  <path class="star" fill="#C5C6C6" fill-rule="nonzero" d="M648.87 1160.69c-13.4,1.51 -14.63,2.74 -16.13,16.15 -1.53,-13.41 -2.74,-14.64 -16.16,-16.15 13.42,-1.51 14.63,-2.74 16.16,-16.15 1.5,13.41 2.73,14.64 16.13,16.15z"/>
  <path class="star" fill="#C5C6C6" fill-rule="nonzero" d="M611.24 1423.14c-13.39,1.51 -14.63,2.74 -16.13,16.15 -1.53,-13.41 -2.74,-14.64 -16.16,-16.15 13.42,-1.51 14.63,-2.74 16.16,-16.15 1.5,13.41 2.74,14.64 16.13,16.15z"/>
  <path class="star" fill="#C5C6C6" fill-rule="nonzero" d="M865.37 798.53c-13.4,1.51 -14.63,2.74 -16.14,16.15 -1.52,-13.41 -2.74,-14.64 -16.15,-16.15 13.41,-1.51 14.63,-2.74 16.15,-16.15 1.51,13.41 2.74,14.64 16.14,16.15z"/>
  <path class="star" fill="#C5C6C6" fill-rule="nonzero" d="M1874.54 325.97c-13.4,1.51 -14.64,2.74 -16.14,16.15 -1.53,-13.41 -2.74,-14.64 -16.16,-16.15 13.42,-1.51 14.63,-2.74 16.16,-16.15 1.5,13.41 2.74,14.64 16.14,16.15z"/>
  <path class="star" fill="#C5C6C6" fill-rule="nonzero" d="M2358.51 479.29c-13.39,1.52 -14.63,2.74 -16.13,16.15 -1.53,-13.41 -2.74,-14.63 -16.16,-16.15 13.42,-1.51 14.63,-2.73 16.16,-16.15 1.5,13.42 2.74,14.64 16.13,16.15z"/>
  <ellipse fill="#C5C6C6" cx="2665.38" cy="940.94" rx="4.39" ry="4.44"/>
  <ellipse fill="#C5C6C6" cx="2477.47" cy="821.5" rx="4.39" ry="4.44"/>
  <ellipse fill="#C5C6C6" cx="2862.83" cy="951.29" rx="4.39" ry="4.44"/>
  <ellipse fill="#C5C6C6" cx="2996.15" cy="1067.12" rx="4.39" ry="4.44"/>
  <ellipse fill="#C5C6C6" cx="2533.43" cy="1162.05" rx="4.39" ry="4.44"/>
  <ellipse fill="#C5C6C6" cx="2679.92" cy="1168.24" rx="4.39" ry="4.44"/>
  <ellipse fill="#C5C6C6" cx="2480.01" cy="1398.39" rx="4.39" ry="4.44"/>
  <ellipse fill="#C5C6C6" cx="2668" cy="1361.67" rx="4.39" ry="4.44"/>
  <ellipse fill="#C5C6C6" cx="2792.13" cy="1571.49" rx="4.39" ry="4.44"/>
  <ellipse fill="#C5C6C6" cx="2550.03" cy="1621.05" rx="4.39" ry="4.44"/>
  <ellipse fill="#C5C6C6" cx="2678.94" cy="1702.31" rx="4.39" ry="4.44"/>
  <ellipse fill="#C5C6C6" cx="2575.03" cy="1860.66" rx="4.39" ry="4.44"/>
  <ellipse fill="#C5C6C6" cx="2335.18" cy="1695.03" rx="4.39" ry="4.44"/>
  <ellipse fill="#C5C6C6" cx="2566.67" cy="2140.8" rx="4.39" ry="4.44"/>
  <ellipse fill="#C5C6C6" cx="2119.09" cy="1808.71" rx="4.39" ry="4.44"/>
  <ellipse fill="#C5C6C6" cx="2304.93" cy="2205.14" rx="4.39" ry="4.44"/>
  <ellipse fill="#C5C6C6" cx="2093.4" cy="2055.47" rx="4.39" ry="4.44"/>
  <ellipse fill="#C5C6C6" cx="1870.72" cy="1906.55" rx="4.39" ry="4.44"/>
  <ellipse fill="#C5C6C6" cx="1706.21" cy="2021.87" rx="4.39" ry="4.44"/>
  <ellipse fill="#C5C6C6" cx="1514.05" cy="1868.56" rx="4.39" ry="4.44"/>
  <ellipse fill="#C5C6C6" cx="1252.75" cy="1813.56" rx="4.39" ry="4.44"/>
  <ellipse fill="#C5C6C6" cx="1110.51" cy="1984.89" rx="4.39" ry="4.44"/>
  <ellipse fill="#C5C6C6" cx="1208.79" cy="1586.62" rx="4.39" ry="4.44"/>
  <ellipse fill="#C5C6C6" cx="865.26" cy="1650.06" rx="4.39" ry="4.44"/>
  <ellipse fill="#C5C6C6" cx="739.92" cy="1776.21" rx="4.39" ry="4.44"/>
  <ellipse fill="#C5C6C6" cx="797.57" cy="2023.27" rx="4.39" ry="4.44"/>
  <ellipse fill="#C5C6C6" cx="545.42" cy="1871.02" rx="4.39" ry="4.44"/>
  <ellipse fill="#C5C6C6" cx="577.62" cy="1594.8" rx="4.39" ry="4.44"/>
  <ellipse fill="#C5C6C6" cx="309.5" cy="1713.69" rx="4.39" ry="4.44"/>
  <ellipse fill="#C5C6C6" cx="353.69" cy="1427.44" rx="4.39" ry="4.44"/>
  <ellipse fill="#C5C6C6" cx="796.67" cy="1353.12" rx="4.39" ry="4.44"/>
  <ellipse fill="#C5C6C6" cx="924.29" cy="1039.58" rx="4.39" ry="4.44"/>
  <ellipse fill="#C5C6C6" cx="637.31" cy="903.01" rx="4.39" ry="4.44"/>
  <ellipse fill="#C5C6C6" cx="1568.59" cy="356.38" rx="4.39" ry="4.44"/>
  <ellipse fill="#C5C6C6" cx="1891.45" cy="470.02" rx="4.39" ry="4.44"/>
  <ellipse fill="#C5C6C6" cx="2202.96" cy="348.3" rx="4.39" ry="4.44"/>
  <ellipse fill="#C5C6C6" cx="2243.49" cy="611.63" rx="4.39" ry="4.44"/>
  <g id="76342147248">
   <polygon fill="#79C7D3" fill-rule="nonzero" points="1852.46,531.23 1757,477.05 1718.99,517.15 1718.99,519.24 1852.46,533.32 "/>
   <polygon fill="#544343" fill-rule="nonzero" points="1743.69,571.84 1737.41,571.84 1737.41,561.61 1743.69,561.61 "/>
   <polygon fill="#544343" fill-rule="nonzero" points="1773.68,571.84 1757.17,571.84 1757.17,561.61 1773.68,561.61 "/>
   <polygon fill="#FFE8CC" fill-rule="nonzero" points="1695.97,447.01 1701.02,410.76 1708.5,408.51 1718.08,440.36 "/>
   <polygon fill="#FFE8CC" fill-rule="nonzero" points="1673.45,436.14 1728.55,419.57 1735.2,441.69 1680.11,458.26 "/>
   <polygon fill="#52A4A8" fill-rule="nonzero" points="1852.46,533.32 1757,479.14 1718.99,519.24 1824.02,560.55 "/>
   <polygon fill="#5EAEB7" fill-rule="nonzero" points="1852.46,533.32 1718.99,519.24 1824.02,560.55 "/>
   <polygon fill="#FFE8CC" fill-rule="nonzero" points="1644.66,533.48 1740.9,450.25 1736.06,448.74 1626.93,526.77 "/>
   <polygon fill="#E0AE85" fill-rule="nonzero" points="1682.29,487.19 1736.06,448.74 1740.9,450.25 1694.03,490.79 "/>
   <polygon fill="#EFC7A3" fill-rule="nonzero" points="1637.68,525.58 1741.37,573.47 1693.94,575.32 1626.93,526.77 "/>
   <polygon fill="#E0AE85" fill-rule="nonzero" points="1637.68,525.58 1688.86,549.22 1654.32,546.61 1626.93,526.77 "/>
   <path fill="#3D2F2F" fill-rule="nonzero" d="M1604.9 640.07c0,-13.8 10.52,-24.99 23.48,-24.99 12.97,0 23.49,11.19 23.49,24.99 0,13.8 -10.52,24.99 -23.49,24.99 -12.96,0 -23.48,-11.19 -23.48,-24.99z"/>
   <path fill="#C14834" fill-rule="nonzero" d="M1656.16 610.22c11.73,-11.74 27.64,-18.33 44.24,-18.33l0.14 0.02c1.33,0.1 1.99,1.48 1.97,2.85l0 0.07 -0.04 0.43 -0.03 0.14 -0.07 0.34 -0.07 0.2 -0.1 0.26 -0.12 0.23 -0.11 0.18 -0.18 0.22 -0.11 0.13 -0.24 0.19 -0.12 0.09 -0.31 0.12 -0.12 0.05c-0.15,0.04 -0.32,0.06 -0.49,0.06 -15.12,0 -29.61,6.01 -40.3,16.69l-25.2 25.21 -3.95 -3.94 25.21 -25.21z"/>
   <path fill="#3D2F2F" fill-rule="nonzero" d="M1735.79 640.07c0,-13.8 10.51,-24.99 23.48,-24.99 12.96,0 23.48,11.19 23.48,24.99 0,13.8 -10.52,24.99 -23.48,24.99 -12.97,0 -23.48,-11.19 -23.48,-24.99z"/>
   <path fill="#3D2F2F" fill-rule="nonzero" d="M1793.9 640.07c0,-13.8 10.52,-24.99 23.48,-24.99 12.97,0 23.48,11.19 23.48,24.99 0,13.8 -10.51,24.99 -23.48,24.99 -12.96,0 -23.48,-11.19 -23.48,-24.99z"/>
   <path fill="#C14834" fill-rule="nonzero" d="M1762.05 635.54l75.39 0 -2.44 -2.45 -18.64 -18.63c-12.74,-12.74 -30.01,-19.9 -48.03,-19.9l0 -5.58 0.03 0 0 -0.25c0.35,0 11.86,0.78 15.48,1.91l0 0.02c13.7,2.96 26.4,9.78 36.47,19.85l28.16 28.16 2.44 2.45 -89.9 0 0 -5.58 1.04 0z"/>
   <polygon fill="#3D2F2F" fill-rule="nonzero" points="1852.6,550.64 1885.37,513.28 1883.31,511.83 1845.9,549.76 1862.49,576.31 1878.86,580.66 "/>
   <polygon fill="#3D2F2F" fill-rule="nonzero" points="1807.85,552.08 1793.37,529.09 1794.5,528.75 1813.09,552.93 1798.44,576.37 1786.7,576.37 "/>
   <polygon fill="#FFE8CC" fill-rule="nonzero" points="1648.62,570.21 1882.23,570.21 1895.72,586.99 1895.72,605.32 1875.73,623.21 1639.08,623.21 1629.44,615.23 1629.44,588.92 "/>
   <polygon fill="#EFC7A3" fill-rule="nonzero" points="1689.29,621.69 1689.29,588.9 1706.03,570.21 1882.23,570.21 1895.72,586.99 1895.72,606.95 1877.83,623.21 1639.08,623.21 1637.24,621.69 "/>
   <polygon fill="#CC9266" fill-rule="nonzero" points="1889.9,606.71 1888.48,606.71 1888.48,587.36 1889.9,587.36 "/>
   <polygon fill="#CC9266" fill-rule="nonzero" points="1883.79,606.71 1882.38,606.71 1882.38,587.36 1883.79,587.36 "/>
   <polygon fill="#CC9266" fill-rule="nonzero" points="1877.69,606.71 1876.28,606.71 1876.28,587.36 1877.69,587.36 "/>
   <polygon fill="#CC9266" fill-rule="nonzero" points="1871.59,606.71 1870.17,606.71 1870.17,587.36 1871.59,587.36 "/>
   <polygon fill="#CC9266" fill-rule="nonzero" points="1865.49,606.71 1864.07,606.71 1864.07,587.36 1865.49,587.36 "/>
   <polygon fill="#CC9266" fill-rule="nonzero" points="1859.38,606.71 1857.97,606.71 1857.97,587.36 1859.38,587.36 "/>
   <polygon fill="#E0AE85" fill-rule="nonzero" points="1766.69,574.86 1822.76,574.86 1846.91,609.97 1784.74,609.97 1761.01,596.77 "/>
   <polygon fill="#CC9266" fill-rule="nonzero" points="1717.65,619.03 1882.46,619.03 1877.16,623.22 1717.65,623.22 "/>
   <polygon fill="#E0AE85" fill-rule="nonzero" points="1689.29,595.34 1689.29,588.9 1706.03,570.21 1882.23,570.21 1884.19,572.64 1712.07,578.81 "/>
   <polygon fill="#56AAB2" fill-rule="nonzero" points="1932.64,597.69 1812.68,493.91 1820.47,439.2 1823.71,437.85 1935.89,596.33 "/>
   <polygon fill="#79C7D3" fill-rule="nonzero" points="1935.89,596.33 1815.92,492.56 1823.71,437.85 1938.38,538.4 "/>
   <g class="head-group">
    <polygon class="head" fill="#FFE8CC" fill-rule="nonzero" points="1741.37,450.02 1740.43,439.79 1677.44,421.66 1606.77,439.33 1633.96,486.05 1694.64,472.57 "/>
    <polygon class="head" fill="#EFC7A3" fill-rule="nonzero" points="1741.86,451.98 1740.43,439.79 1677.44,421.66 1694.64,472.57 "/>
    <polygon class="head" fill="#5B4343" fill-rule="nonzero" points="1635.36,483.03 1611.18,440.72 1669.79,427.71 1683.56,471.17 "/>
    <polygon class="head" fill="#3D2F2F" fill-rule="nonzero" points="1669.79,427.71 1671.78,434.01 1619.55,445.6 1640.25,481.83 1635.36,483.03 1611.18,440.72 "/>
    <path class="head" fill="#BBF3F9" fill-rule="nonzero" d="M1661.85 452.46c-2.3,-7.12 -2.38,-13.48 -0.17,-14.19 2.21,-0.72 5.87,4.47 8.17,11.59 2.31,7.12 2.39,13.48 0.17,14.19 -2.2,0.72 -5.86,-4.47 -8.17,-11.59z"/>
    <path class="head" fill="#BBF3F9" fill-rule="nonzero" d="M1634.37 460.52c-2.48,-6.56 -2.92,-12.47 -0.99,-13.2 1.94,-0.73 5.52,3.99 7.99,10.55 2.48,6.56 2.93,12.47 1,13.2 -1.94,0.73 -5.52,-4 -8,-10.55z"/>
    <path id="flash" fill="#EBCC42" fill-rule="nonzero" d="M1676.16 436.85c-8.58,3.96 -9.13,5.05 -7.17,14.31 -3.98,-8.59 -5.06,-9.14 -14.32,-7.18 8.6,-3.97 9.13,-5.05 7.18,-14.31 3.97,8.59 5.06,9.13 14.31,7.18z"/>
   </g>
   <path fill="#E0AE85" fill-rule="nonzero" d="M1717.97 445.9c0,-4.46 2.04,-8.44 5.24,-11.06l17.22 4.95 1.43 12.19 -15.69 6.84c-4.85,-2.29 -8.2,-7.21 -8.2,-12.92z"/>
   <polygon fill="#BBF3F9" fill-rule="nonzero" points="1933.67,590.02 1819,491.55 1826.3,443.29 1935.8,539.77 "/>
   <polygon fill="#D2FDFF" fill-rule="nonzero" points="1886.84,496.63 1935.8,539.77 1934.38,573.11 "/>
   <polygon fill="#D2FDFF" fill-rule="nonzero" points="1874.85,539.51 1819,491.55 1826.22,443.85 "/>
   <path fill="#EFC7A3" fill-rule="nonzero" d="M1720.23 445.38c0,-7.9 6.4,-14.3 14.3,-14.3 7.89,0 14.3,6.4 14.3,14.3 0,7.89 -6.41,14.29 -14.3,14.29 -7.9,0 -14.3,-6.4 -14.3,-14.29z"/>
   <path fill="#513F3F" fill-rule="nonzero" d="M1733.58 444.91c0,-4.17 2.73,-7.56 6.12,-7.56 3.38,0 6.11,3.39 6.11,7.56 0,4.17 -2.73,7.55 -6.11,7.55 -3.39,0 -6.12,-3.38 -6.12,-7.55z"/>
   <path fill="#3D2F2F" fill-rule="nonzero" d="M1753.92 530.81c0,-1.48 5.31,-4.3 11.86,-4.3 6.54,0 11.85,2.82 11.85,4.3 0,1.48 -5.31,2.67 -11.85,2.67 -6.55,0 -11.86,-1.19 -11.86,-2.67z"/>
   <polygon fill="#FFE8CC" fill-rule="nonzero" points="1779.14,566.26 1751.6,566.26 1751.6,530.69 1779.14,530.69 "/>
   <path fill="#EFC7A3" fill-rule="nonzero" d="M1757.06 562.31c6.61,0 11.97,-11.45 11.97,-25.57 0,-2.09 -0.13,-4.11 -0.35,-6.05l10.46 0 0 35.57 -27.54 0 0 -6.79c1.63,1.8 3.49,2.84 5.46,2.84z"/>
   <polygon fill="#FFE8CC" fill-rule="nonzero" points="1745.78,566.26 1736,566.26 1736,552.27 1745.78,552.27 "/>
   <path fill="#EFC7A3" fill-rule="nonzero" d="M1736.83 563.94c2.9,0 5.29,-5.09 5.65,-11.67l3.3 0 0 13.99 -9.78 0 0 -2.48c0.27,0.09 0.55,0.16 0.83,0.16z"/>
   <path fill="#FF9B40" fill-rule="nonzero" d="M1820.29 637.22l89.9 0 -30.6 -30.6c-13.79,-13.79 -32.48,-21.53 -51.98,-21.53l0 5.58c18.02,0 35.3,7.15 48.03,19.89l21.08 21.08 -76.43 0 0 5.58z"/>
   <path fill="#F77C37" fill-rule="nonzero" d="M1843.09 589.78c16.11,3.94 23.92,9.03 33.6,18.34l21.08 21.08 -3.49 0 -18.64 -18.64c-12.73,-12.74 -30.01,-19.89 -48.03,-19.89l0.03 -5.84c0.35,0 11.86,0.78 15.48,1.91l-0.03 3.04z"/>
   <polygon fill="#F77C37" fill-rule="nonzero" points="1821.33,631.64 1821.33,634.78 1907.75,634.78 1910.19,637.22 1820.29,637.22 1820.29,631.64 "/>
   <path fill="#FFE8CC" fill-rule="nonzero" d="M1761.01 576.72l62.42 0c11.18,0 11.18,20.92 0,20.92l-62.42 0 0 -20.92z"/>
   <polygon fill="#EFC7A3" fill-rule="nonzero" points="1766.94,585.09 1771.94,585.09 1777.86,597.64 1772.87,597.64 "/>
   <path fill="#FFDEBB" fill-rule="nonzero" d="M1779.49 576.72l43.94 0c11.18,0 11.18,20.92 0,20.92l-43.94 0c11.18,0 11.18,-20.92 0,-20.92z"/>
   <path fill="#FF9B40" fill-rule="nonzero" d="M1704.92 631.87l25.21 -25.21c10.69,-10.69 25.18,-16.69 40.29,-16.69 2.82,0 2.82,-5.58 0,-5.58 -16.59,0 -32.5,6.59 -44.23,18.33l-25.21 25.2 3.94 3.95z"/>
   <path fill="#F77C37" fill-rule="nonzero" d="M1703.06 630.01l25.21 -25.21c10.69,-10.69 25.18,-16.69 40.29,-16.69 1.73,0 2.39,-2.08 2.01,-3.7 2.66,0.19 2.62,5.56 -0.15,5.56 -15.11,0 -29.6,6 -40.29,16.69l-25.21 25.21 -3.94 -3.95 2.08 2.09z"/>
   <path fill="#FFE8CC" fill-rule="nonzero" d="M1626.08 528.34c0,-7.75 6.35,-14.03 14.17,-14.03 7.83,0 14.17,6.28 14.17,14.03 0,7.75 -6.34,14.03 -14.17,14.03 -7.82,0 -14.17,-6.28 -14.17,-14.03z"/>
   <path fill="#EFC7A3" fill-rule="nonzero" d="M1635.5 532.2c7.89,0 14.29,-6.4 14.29,-14.29l0 -0.05c2.99,2.62 4.89,6.45 4.89,10.74 0,7.9 -6.4,14.3 -14.3,14.3 -7.88,0 -14.27,-6.38 -14.3,-14.25 2.52,2.21 5.81,3.55 9.42,3.55z"/>
   <path fill="#513F3F" fill-rule="nonzero" d="M1638.21 529.3c0,-3.91 2.98,-7.07 6.67,-7.07 3.69,0 6.68,3.17 6.68,7.07 0,3.9 -2.99,7.07 -6.68,7.07 -3.69,0 -6.67,-3.17 -6.67,-7.07z"/>
   <path fill="#544343" fill-rule="nonzero" d="M1736.48 639.38c0,14.38 -11.66,26.03 -26.03,26.03 -14.38,0 -26.04,-11.65 -26.04,-26.03 0,-14.38 11.66,-26.04 26.04,-26.04 14.37,0 26.03,11.66 26.03,26.04z"/>
   <path fill="#3D3032" fill-rule="nonzero" d="M1731.84 639.38c0,10.66 -7.37,19.3 -16.46,19.3 -9.09,0 -16.46,-8.64 -16.46,-19.3 0,-10.66 7.37,-19.3 16.46,-19.3 9.09,0 16.46,8.64 16.46,19.3z"/>
   <path fill="#7C6363" fill-rule="nonzero" d="M1722.35 639.7c0,7.06 -4.88,12.78 -10.89,12.78 -6.03,0 -10.9,-5.72 -10.9,-12.78 0,-7.05 4.87,-12.77 10.9,-12.77 6.01,0 10.89,5.72 10.89,12.77z"/>
   <path fill="#7C6363" fill-rule="nonzero" d="M1724.86 639.7c0,0.52 -0.35,0.93 -0.79,0.93 -0.44,0 -0.79,-0.41 -0.79,-0.93 0,-0.51 0.35,-0.92 0.79,-0.92 0.44,0 0.79,0.41 0.79,0.92z"/>
   <path fill="#7C6363" fill-rule="nonzero" d="M1712.68 624.6c0,0.51 -0.35,0.93 -0.79,0.93 -0.43,0 -0.79,-0.42 -0.79,-0.93 0,-0.51 0.36,-0.92 0.79,-0.92 0.44,0 0.79,0.41 0.79,0.92z"/>
   <path fill="#7C6363" fill-rule="nonzero" d="M1712.68 654.37c0,0.51 -0.35,0.93 -0.79,0.93 -0.43,0 -0.79,-0.42 -0.79,-0.93 0,-0.51 0.36,-0.93 0.79,-0.93 0.44,0 0.79,0.42 0.79,0.93z"/>
   <path fill="#AD9393" fill-rule="nonzero" d="M1721.84 639.7c0,6.3 -4.35,11.41 -9.72,11.41 -5.36,0 -9.71,-5.11 -9.71,-11.41 0,-6.29 4.35,-11.4 9.71,-11.4 5.37,0 9.72,5.11 9.72,11.4z"/>
   <path fill="#7C6565" fill-rule="nonzero" d="M1710.45 613.34c1.36,0 2.69,0.14 4,0.35 -31.09,1.97 -30.16,48.93 0,51.38 -1.31,0.2 -2.64,0.34 -4,0.34 -14.38,0 -26.04,-11.65 -26.04,-26.03 0,-14.38 11.66,-26.04 26.04,-26.04z"/>
   <path fill="#685353" fill-rule="nonzero" d="M1691.56 650.88c0.82,0 1.63,-0.05 2.44,-0.12 3.41,7.55 10.25,13.48 20.45,14.31 -1.31,0.2 -2.64,0.34 -4,0.34 -10.4,0 -19.35,-6.12 -23.52,-14.93 1.51,0.25 3.04,0.4 4.63,0.4z"/>
   <path fill="#544343" fill-rule="nonzero" d="M1863.59 639.38c0,14.38 -11.65,26.03 -26.03,26.03 -14.37,0 -26.03,-11.65 -26.03,-26.03 0,-14.38 11.66,-26.03 26.03,-26.03 14.38,0 26.03,11.65 26.03,26.03z"/>
   <path fill="#3D3032" fill-rule="nonzero" d="M1858.96 639.38c0,10.66 -7.37,19.3 -16.46,19.3 -9.09,0 -16.46,-8.64 -16.46,-19.3 0,-10.66 7.37,-19.3 16.46,-19.3 9.09,0 16.46,8.64 16.46,19.3z"/>
   <path fill="#7C6363" fill-rule="nonzero" d="M1849.47 639.7c0,7.06 -4.88,12.78 -10.9,12.78 -6.02,0 -10.9,-5.72 -10.9,-12.78 0,-7.05 4.88,-12.77 10.9,-12.77 6.02,0 10.9,5.72 10.9,12.77z"/>
   <path fill="#7C6363" fill-rule="nonzero" d="M1851.98 639.7c0,0.52 -0.36,0.93 -0.79,0.93 -0.44,0 -0.79,-0.41 -0.79,-0.93 0,-0.51 0.35,-0.92 0.79,-0.92 0.43,0 0.79,0.41 0.79,0.92z"/>
   <path fill="#7C6363" fill-rule="nonzero" d="M1839.8 624.6c0,0.51 -0.35,0.93 -0.79,0.93 -0.44,0 -0.79,-0.42 -0.79,-0.93 0,-0.51 0.35,-0.92 0.79,-0.92 0.44,0 0.79,0.41 0.79,0.92z"/>
   <path fill="#7C6363" fill-rule="nonzero" d="M1839.8 654.37c0,0.51 -0.35,0.93 -0.79,0.93 -0.44,0 -0.79,-0.42 -0.79,-0.93 0,-0.51 0.35,-0.93 0.79,-0.93 0.44,0 0.79,0.42 0.79,0.93z"/>
   <path fill="#AD9393" fill-rule="nonzero" d="M1848.96 639.7c0,6.3 -4.35,11.41 -9.72,11.41 -5.36,0 -9.72,-5.11 -9.72,-11.41 0,-6.29 4.36,-11.4 9.72,-11.4 5.37,0 9.72,5.11 9.72,11.4z"/>
   <path fill="#7C6565" fill-rule="nonzero" d="M1837.56 613.35c1.37,0 2.7,0.13 4.01,0.34 -31.09,1.97 -30.16,48.93 0,51.38 -1.31,0.2 -2.64,0.34 -4.01,0.34 -14.37,0 -26.03,-11.65 -26.03,-26.03 0,-14.38 11.66,-26.03 26.03,-26.03z"/>
   <path fill="#685353" fill-rule="nonzero" d="M1818.67 650.88c0.83,0 1.64,-0.05 2.45,-0.12 3.4,7.55 10.25,13.48 20.45,14.31 -1.31,0.2 -2.64,0.34 -4.01,0.34 -10.39,0 -19.34,-6.12 -23.51,-14.93 1.5,0.25 3.04,0.4 4.62,0.4z"/>
   <path fill="#544343" fill-rule="nonzero" d="M1931.94 639.38c0,14.38 -11.65,26.03 -26.03,26.03 -14.38,0 -26.03,-11.65 -26.03,-26.03 0,-14.38 11.65,-26.03 26.03,-26.03 14.38,0 26.03,11.65 26.03,26.03z"/>
   <path fill="#3D3032" fill-rule="nonzero" d="M1927.31 639.38c0,10.66 -7.37,19.3 -16.46,19.3 -9.1,0 -16.47,-8.64 -16.47,-19.3 0,-10.66 7.37,-19.3 16.47,-19.3 9.09,0 16.46,8.64 16.46,19.3z"/>
   <path fill="#7C6363" fill-rule="nonzero" d="M1917.82 639.7c0,7.06 -4.88,12.78 -10.9,12.78 -6.02,0 -10.9,-5.72 -10.9,-12.78 0,-7.05 4.88,-12.77 10.9,-12.77 6.02,0 10.9,5.72 10.9,12.77z"/>
   <path fill="#7C6363" fill-rule="nonzero" d="M1920.32 639.7c0,0.52 -0.35,0.93 -0.78,0.93 -0.44,0 -0.8,-0.41 -0.8,-0.93 0,-0.51 0.36,-0.92 0.8,-0.92 0.43,0 0.78,0.41 0.78,0.92z"/>
   <path fill="#7C6363" fill-rule="nonzero" d="M1908.15 624.6c0,0.51 -0.35,0.93 -0.79,0.93 -0.44,0 -0.8,-0.42 -0.8,-0.93 0,-0.51 0.36,-0.92 0.8,-0.92 0.44,0 0.79,0.41 0.79,0.92z"/>
   <path fill="#7C6363" fill-rule="nonzero" d="M1908.15 654.37c0,0.51 -0.35,0.93 -0.79,0.93 -0.44,0 -0.8,-0.42 -0.8,-0.93 0,-0.51 0.36,-0.93 0.8,-0.93 0.44,0 0.79,0.42 0.79,0.93z"/>
   <path fill="#AD9393" fill-rule="nonzero" d="M1917.3 639.7c0,6.3 -4.35,11.41 -9.71,11.41 -5.37,0 -9.72,-5.11 -9.72,-11.41 0,-6.29 4.35,-11.4 9.72,-11.4 5.36,0 9.71,5.11 9.71,11.4z"/>
   <path fill="#7C6565" fill-rule="nonzero" d="M1905.91 613.35c1.37,0 2.7,0.13 4.01,0.34 -31.09,1.97 -30.16,48.93 0,51.38 -1.31,0.2 -2.64,0.34 -4.01,0.34 -14.38,0 -26.03,-11.65 -26.03,-26.03 0,-14.38 11.65,-26.03 26.03,-26.03z"/>
   <path fill="#685353" fill-rule="nonzero" d="M1887.02 650.88c0.83,0 1.64,-0.05 2.45,-0.12 3.4,7.55 10.25,13.48 20.45,14.31 -1.31,0.2 -2.64,0.34 -4.01,0.34 -10.4,0 -19.35,-6.12 -23.52,-14.93 1.51,0.25 3.05,0.4 4.63,0.4z"/>
   <path fill="#3D2F2F" fill-rule="nonzero" d="M1790.76 529.53c0,-2.31 1.72,-4.18 3.84,-4.18 2.12,0 3.84,1.87 3.84,4.18 0,2.31 -1.72,4.18 -3.84,4.18 -2.12,0 -3.84,-1.87 -3.84,-4.18z"/>
   <polygon fill="#79C7D3" fill-rule="nonzero" points="1924.55,528.13 1925.71,528.14 1921.04,580.19 1919.87,580.18 "/>
   <polygon fill="#79C7D3" fill-rule="nonzero" points="1818.93,477.48 1819.7,476.6 1936.87,576.76 1936.1,577.64 "/>
   <polygon fill="#79C7D3" fill-rule="nonzero" points="1822.73,457.23 1823.5,456.35 1937.27,556.13 1936.5,557.01 "/>
   <polygon fill="#79C7D3" fill-rule="nonzero" points="1910.01,514.62 1911.17,514.65 1905.59,566.6 1904.42,566.58 "/>
   <polygon fill="#79C7D3" fill-rule="nonzero" points="1895.54,502.2 1896.7,502.23 1891.11,554.18 1889.95,554.16 "/>
   <polygon fill="#79C7D3" fill-rule="nonzero" points="1881.06,489.78 1882.23,489.81 1876.64,541.76 1875.47,541.74 "/>
   <polygon fill="#79C7D3" fill-rule="nonzero" points="1866.59,477.36 1867.76,477.38 1862.17,529.34 1861,529.31 "/>
   <polygon fill="#79C7D3" fill-rule="nonzero" points="1852.12,464.94 1853.29,464.96 1847.7,516.92 1846.53,516.89 "/>
   <polygon fill="#79C7D3" fill-rule="nonzero" points="1837.65,452.51 1838.82,452.54 1833.23,504.5 1832.06,504.47 "/>
   <path fill="#EFC7A3" fill-rule="nonzero" d="M1640.3 529.3c0,-2.8 2.21,-5.06 4.93,-5.06 2.72,0 4.94,2.27 4.94,5.06 0,2.79 -2.22,5.06 -4.94,5.06 -2.72,0 -4.93,-2.27 -4.93,-5.06z"/>
   <path fill="#EFC7A3" fill-rule="nonzero" d="M1734.46 445.26c0,-2.74 1.8,-4.96 4.02,-4.96 2.21,0 4.01,2.22 4.01,4.96 0,2.74 -1.8,4.96 -4.01,4.96 -2.22,0 -4.02,-2.22 -4.02,-4.96z"/>
   <polygon fill="#CC9266" fill-rule="nonzero" points="1826.33,588.4 1794.08,588.4 1794.08,584.74 1826.33,584.74 "/>
   <polygon fill="#CC9266" fill-rule="nonzero" points="1648.36,574.86 1695.22,574.86 1686.99,583.86 1640.12,583.86 "/>
   <path fill="#C14834" fill-rule="nonzero" d="M1625.83 637.98c0,-3.92 2.55,-7.09 5.69,-7.09 3.15,0 5.7,3.17 5.7,7.09 0,3.91 -2.55,7.09 -5.7,7.09 -3.14,0 -5.69,-3.18 -5.69,-7.09z"/>
   <path fill="#C14834" fill-rule="nonzero" d="M1755.89 637.98c0,-3.92 2.55,-7.09 5.7,-7.09 3.15,0 5.69,3.17 5.69,7.09 0,3.91 -2.54,7.09 -5.69,7.09 -3.15,0 -5.7,-3.18 -5.7,-7.09z"/>
  </g>
 </g>
</svg>
